# Blender 3.3.3
# www.blender.org
o Climb.Pose
v 0.442699 1.726089 0.072824
v 0.448951 1.743920 0.054323
v 0.580215 1.666076 0.054324
v 0.581831 1.643667 0.072824
v 0.603198 1.639591 0.054346
v 0.300827 0.406878 0.072824
v 0.319514 0.407474 0.054345
v 0.290875 0.216389 0.054351
v 0.306300 0.246977 0.054347
v 0.287467 0.240355 0.072824
v -0.119852 0.144557 0.060828
v -0.016324 0.147834 0.072824
v -0.333585 0.191225 0.054346
v -0.303049 0.171650 0.060579
v -0.312746 0.191766 0.072824
v -0.405475 0.328087 0.054348
v -0.394012 0.345238 0.072824
v -0.407436 0.361649 0.054345
v -0.294929 1.089306 0.063763
v -0.279934 1.054479 0.054345
v -0.260896 1.080626 0.072824
v -0.193523 1.762417 0.054468
v -0.135183 1.760407 0.072824
v -0.021675 1.780421 0.054415
v -0.063077 1.767119 0.072824
v 0.415102 1.739357 -0.072823
v 0.451919 1.742501 -0.054346
v 0.634288 1.562933 -0.054346
v 0.636813 1.527795 -0.054345
v 0.621711 1.545244 -0.072823
v 0.591683 1.380327 -0.054346
v 0.587380 1.402232 -0.072823
v 0.608992 1.411432 -0.054345
v 0.319946 0.405419 -0.054345
v 0.301383 0.404265 -0.072824
v 0.304776 0.241922 -0.054346
v 0.288469 0.212102 -0.054352
v 0.285273 0.234339 -0.072824
v -0.114384 0.144326 -0.056875
v -0.007985 0.147659 -0.072824
v -0.334626 0.191613 -0.054346
v -0.314379 0.192047 -0.072824
v -0.304410 0.171857 -0.057174
v -0.406467 0.363811 -0.054345
v -0.392765 0.347919 -0.072824
v -0.404819 0.330058 -0.054348
v -0.530499 1.348072 -0.054345
v -0.509917 1.338587 -0.072823
v -0.511585 1.313758 -0.063727
v 0.603816 1.638832 -0.054346
v 0.584612 1.638314 -0.072823
v 0.581109 1.665470 -0.054346
v 0.634057 1.564689 0.054346
v 0.621698 1.547667 0.072824
v 0.636935 1.529625 0.054346
v 0.609317 1.412023 0.054345
v 0.587863 1.402884 0.072824
v 0.592126 1.380882 0.054346
v 0.337118 1.122900 -0.054346
v 0.321160 1.133077 -0.072823
v 0.321942 1.133594 0.072824
v 0.337677 1.123264 0.054346
v 0.257600 0.916092 -0.054346
v 0.238800 0.918446 -0.072824
v 0.258077 0.918680 0.054346
v 0.239447 0.921998 0.072824
v 0.258382 0.639433 -0.072824
v 0.276733 0.641643 -0.054345
v 0.258290 0.638628 0.072824
v 0.276668 0.641022 0.054345
v 0.182158 0.146767 -0.056777
v 0.175591 0.148521 -0.072824
v 0.221200 0.158373 -0.054349
v 0.182397 0.148899 0.072824
v 0.186012 0.147191 0.061596
v 0.224340 0.159509 0.054349
v -0.310926 0.611192 -0.054345
v -0.292911 0.606665 -0.072824
v -0.293043 0.605420 0.072824
v -0.311028 0.610263 0.054345
v -0.285535 0.790375 -0.054345
v -0.267095 0.788499 -0.072824
v -0.267009 0.791488 0.072824
v -0.285471 0.792592 0.054345
v -0.280004 1.052143 -0.054345
v -0.294910 1.086467 -0.063367
v -0.260991 1.077456 -0.072823
v -0.530490 1.348936 0.054345
v -0.511560 1.314897 0.063401
v -0.509816 1.339846 0.072824
v -0.554469 1.546983 -0.054345
v -0.546143 1.527841 -0.072823
v -0.562472 1.514351 -0.054346
v -0.562738 1.513296 0.054346
v -0.546611 1.526531 0.072824
v -0.554940 1.545993 0.054346
v -0.435041 1.678889 -0.061128
v -0.444792 1.655731 -0.072823
v -0.467405 1.657109 -0.054346
v -0.468184 1.656858 0.054346
v -0.449845 1.650485 0.072824
v -0.436112 1.678665 0.054345
v -0.092110 1.768397 -0.072823
v -0.126176 1.775622 -0.057731
v -0.069850 -1.508155 0.000000
v -0.069850 -1.489676 0.018478
v -0.088328 -1.489676 0.000000
v -0.069850 1.489677 0.018478
v -0.069850 1.508155 0.000000
v -0.088328 1.489677 0.000000
v -0.069850 -1.508155 -0.000000
v -0.088328 -1.489676 -0.000000
v -0.069850 -1.489676 -0.018478
v -0.069850 1.508155 -0.000000
v -0.069850 1.489677 -0.018478
v -0.088328 1.489677 -0.000000
v 0.069850 -1.508155 0.000000
v 0.088328 -1.489676 0.000000
v 0.069850 -1.489676 0.018478
v 0.069850 1.508155 0.000000
v 0.069850 1.489677 0.018478
v 0.088328 1.489677 0.000000
v 0.069850 -1.508155 -0.000000
v 0.069850 -1.489676 -0.018478
v 0.088328 -1.489676 -0.000000
v 0.069850 1.508155 -0.000000
v 0.088328 1.489677 -0.000000
v 0.069850 1.489677 -0.018478
vn 0.5851 0.7307 0.3518
vn 0.5781 0.7206 -0.3829
vn 0.3215 0.8687 -0.3767
vn 0.2780 0.8949 0.3491
vn -0.0000 -0.0000 1.0000
vn 0.9076 0.2352 0.3478
vn 0.9081 0.2299 -0.3499
vn 0.8066 0.4746 -0.3524
vn 0.8090 0.4743 0.3473
vn 0.9267 0.0452 0.3730
vn 0.9264 0.0419 -0.3741
vn 0.9147 0.1144 0.3877
vn 0.9024 -0.1383 0.4082
vn 0.9022 -0.1352 -0.4096
vn 0.7672 -0.4957 -0.4069
vn 0.7667 -0.4968 0.4066
vn -0.7011 -0.5058 0.5026
vn -0.7038 -0.5076 -0.4971
vn -0.6366 -0.5063 0.5817
vn -0.8879 -0.1727 -0.4263
vn -0.9183 0.0745 -0.3887
vn -0.9188 0.0736 0.3877
vn -0.8851 -0.1746 0.4313
vn -0.0000 -0.0000 -1.0000
vn -0.8892 0.2316 0.3945
vn -0.8893 0.2315 -0.3943
vn 0.9059 -0.2391 0.3496
vn 0.9032 -0.2512 -0.3481
vn 0.4956 -0.7960 0.3475
vn 0.4784 -0.8042 -0.3526
vn 0.7033 -0.6130 -0.3601
vn 0.7141 -0.5975 0.3648
vn -0.3078 -0.8458 0.4358
vn -0.3072 -0.8733 -0.3781
vn -0.0838 -0.8872 0.4538
vn -0.0841 -0.9138 -0.3974
vn 0.8766 -0.3194 0.3599
vn 0.8760 -0.3214 -0.3596
vn 0.9296 -0.0945 -0.3563
vn 0.9299 -0.0908 0.3565
vn 0.9144 0.1148 -0.3883
vn -0.9391 -0.0036 0.3437
vn -0.9384 -0.0006 -0.3454
vn -0.8960 -0.2831 -0.3422
vn -0.8949 -0.2839 0.3442
vn 0.1831 -0.9759 0.1186
vn 0.1677 -0.9811 -0.0968
vn -0.9001 -0.2720 0.3403
vn -0.8988 -0.2644 -0.3496
vn -0.7220 -0.6052 -0.3353
vn -0.7236 -0.6049 0.3324
vn -0.6458 0.6747 0.3574
vn -0.6627 0.6633 -0.3476
vn -0.8331 0.4322 -0.3452
vn -0.8350 0.4296 0.3439
vn 0.0308 0.9443 0.3275
vn -0.1473 0.9044 -0.4004
vn -0.2423 0.8927 0.3799
vn -0.3893 0.8100 -0.4387
vn -0.3942 0.8325 0.3893
vn 0.7374 -0.5737 -0.3565
vn 0.7383 -0.5730 0.3558
vn -0.9217 0.1718 -0.3477
vn -0.9243 0.1691 0.3420
vn -0.6473 -0.5085 -0.5678
vn -0.0000 -1.0000 -0.0000
vn 1.0000 -0.0000 -0.0000
vn -0.0000 1.0000 -0.0000
vn -1.0000 -0.0000 -0.0000
vn 0.3553 0.3063 0.8832
vn 0.4203 -0.2024 0.8845
vn -0.2993 -0.3488 0.8881
vn -0.4855 -0.0293 0.8738
vn -0.1814 -0.0973 0.9786
vn 0.4617 0.0360 -0.8863
vn 0.3948 -0.2215 -0.8916
vn 0.4148 -0.2206 -0.8828
vn -0.2973 -0.3846 -0.8739
vn -0.4808 -0.0226 -0.8766
vn -0.3826 -0.1307 -0.9146
vn 0.3506 0.2788 -0.8940
vn 0.4625 0.0422 0.8856
vn 0.3960 -0.2203 0.8914
vn 0.1104 -0.6663 -0.7375
vn 0.3385 -0.9079 0.2472
vn -0.1857 -0.0968 -0.9778
vn -0.3800 -0.1326 0.9154
vn -0.4704 0.1158 -0.8748
vn -0.4719 0.1121 0.8745
vn -0.2760 0.3295 -0.9029
vn -0.2663 0.3490 0.8985
vn -0.5773 -0.5773 0.5774
vn -0.5774 0.5774 0.5773
vn -0.5773 -0.5773 -0.5774
vn -0.5774 0.5774 -0.5773
vn 0.5773 -0.5773 0.5774
vn 0.5774 0.5774 0.5773
vn 0.5773 -0.5773 -0.5774
vn 0.5774 0.5774 -0.5773
vn -0.0404 0.5343 0.8443
vn 0.1272 0.4096 0.9034
vn 0.3606 0.6084 0.7069
vn -0.6265 -0.3305 0.7059
vn 0.4076 0.0174 -0.9130
vn 0.3676 0.0463 -0.9288
vn 0.0798 0.5895 -0.8038
vn 0.6609 0.2735 0.6989
vn 0.6811 -0.1595 0.7146
vn 0.5032 -0.4969 0.7070
vn 0.2804 -0.1808 -0.9427
vn 0.3268 -0.0481 -0.9439
vn 0.7064 0.0471 0.7062
vn 0.4451 -0.5150 0.7326
vn -0.6591 0.2557 0.7072
vn -0.3456 0.0898 -0.9341
vn -0.3684 0.0301 -0.9292
vn -0.7006 0.0981 0.7068
vn -0.0915 0.9036 0.4185
vn -0.2132 0.6131 0.7607
vn -0.5574 0.4356 0.7068
vn -0.6943 -0.1365 0.7067
vn -0.3221 -0.3086 0.8950
vn 0.6587 -0.2566 0.7073
vn -0.7069 0.0149 0.7072
vn 0.6951 0.1276 0.7075
vn 0.7061 -0.0574 0.7057
vn -0.0808 -0.5425 0.8362
vn 0.0069 -0.9834 0.1813
vn 0.0555 0.9527 -0.2988
vn 0.0072 0.5832 -0.8123
vn -0.0002 -0.6564 -0.7545
vn -0.7224 -0.6915 -0.0000
vn -0.7071 -0.0000 0.7071
vn -0.7073 0.7069 -0.0000
vn -0.7071 -0.0000 -0.7071
vn -0.0000 -0.7071 -0.7071
vn -0.0000 0.7071 -0.7071
vn 0.7071 -0.0000 -0.7071
vn 0.7012 -0.7129 -0.0000
vn 0.7012 0.7129 -0.0000
vn 0.7071 -0.0000 0.7071
vn -0.0000 -0.7071 0.7071
vn -0.0000 0.7071 0.7071
vt 0.890904 0.919939
vt 0.893818 0.928247
vt 0.954981 0.891982
vt 0.955730 0.881535
vt 0.965663 0.879627
vt 0.824802 0.305275
vt 0.833509 0.305553
vt 0.820108 0.216589
vt 0.827384 0.230769
vt 0.818577 0.227687
vt 0.628794 0.183051
vt 0.677031 0.184578
vt 0.529247 0.204815
vt 0.543436 0.195675
vt 0.538918 0.205048
vt 0.495673 0.268543
vt 0.501054 0.276555
vt 0.494795 0.284203
vt 0.547220 0.623241
vt 0.554206 0.607014
vt 0.563077 0.619196
vt 0.594468 0.936865
vt 0.594421 0.937338
vt 0.594307 0.937326
vt 0.621650 0.935929
vt 0.674538 0.945254
vt 0.655247 0.939056
vt 0.878046 0.926121
vt 0.895200 0.927586
vt 0.980149 0.843910
vt 0.981360 0.827544
vt 0.974312 0.835677
vt 0.960322 0.758836
vt 0.958316 0.769043
vt 0.968374 0.773333
vt 0.833710 0.304595
vt 0.825061 0.304058
vt 0.826614 0.228419
vt 0.819107 0.214446
vt 0.817554 0.224884
vt 0.631341 0.182944
vt 0.680916 0.184497
vt 0.528684 0.204956
vt 0.538157 0.205178
vt 0.542802 0.195771
vt 0.495254 0.285207
vt 0.501635 0.277804
vt 0.496057 0.269502
vt 0.437448 0.743806
vt 0.447050 0.739389
vt 0.446272 0.727820
vt 0.965998 0.879292
vt 0.957027 0.879041
vt 0.955391 0.891688
vt 0.980088 0.844747
vt 0.974306 0.836806
vt 0.981394 0.828402
vt 0.968549 0.773602
vt 0.958541 0.769347
vt 0.960526 0.759097
vt 0.841711 0.638893
vt 0.834276 0.643635
vt 0.834640 0.643876
vt 0.841971 0.639063
vt 0.804661 0.542535
vt 0.795901 0.543631
vt 0.804883 0.543740
vt 0.796203 0.545287
vt 0.805025 0.413630
vt 0.813575 0.414660
vt 0.804982 0.413255
vt 0.813536 0.414369
vt 0.769510 0.184081
vt 0.766450 0.184898
vt 0.787643 0.189559
vt 0.769621 0.185074
vt 0.771306 0.184279
vt 0.789226 0.189943
vt 0.539766 0.400472
vt 0.548160 0.398362
vt 0.548099 0.397782
vt 0.539740 0.400036
vt 0.551597 0.483959
vt 0.560188 0.483085
vt 0.560228 0.484478
vt 0.551626 0.484992
vt 0.554173 0.605925
vt 0.547229 0.621918
vt 0.563032 0.617720
vt 0.437476 0.744213
vt 0.446284 0.728351
vt 0.447097 0.739975
vt 0.426280 0.836497
vt 0.430171 0.827569
vt 0.422574 0.821285
vt 0.422427 0.820789
vt 0.429953 0.826958
vt 0.426084 0.836017
vt 0.481937 0.897947
vt 0.477394 0.887157
vt 0.466869 0.887789
vt 0.466483 0.887691
vt 0.475039 0.884713
vt 0.481438 0.897842
vt 0.641720 0.939651
vt 0.625847 0.943018
vt 0.625561 0.943913
vt 0.625899 0.943781
vt 0.879009 0.398420
vt 0.830402 0.506990
vt 0.879341 0.582739
vt 0.879341 0.371278
vt 0.830402 0.534132
vt 0.824724 0.506990
vt 0.879341 0.398420
vt 0.932961 0.582739
vt 0.932961 0.371278
vt 0.981901 0.534132
vt 0.981901 0.506990
vt 0.932961 0.398420
vt 0.987579 0.506990
vt 0.830402 0.506990
vt 0.879009 0.398420
vt 0.879009 0.431241
vt 0.879341 0.398420
vt 0.879341 0.425563
vt 0.879341 0.431241
vt 0.981901 0.506990
vt 0.933294 0.431241
vt 0.932961 0.431241
vt 0.932961 0.425563
vt 0.987579 0.506990
vt 0.932961 0.398420
vt 0.879009 0.506990
vt 0.873331 0.506990
vt 0.879341 0.506990
vt 0.879341 0.534132
vt 0.879341 0.539810
vt 0.873331 0.534132
vt 0.938972 0.506990
vt 0.932961 0.539811
vt 0.938972 0.534132
vt 0.933294 0.506990
vt 0.932961 0.506990
vt 0.879009 0.474169
vt 0.873331 0.506990
vt 0.879341 0.474169
vt 0.879341 0.479847
vt 0.879341 0.506990
vt 0.933294 0.474169
vt 0.938972 0.506990
vt 0.933294 0.506990
vt 0.932961 0.506990
vt 0.938972 0.479847
vt 0.932961 0.474169
s 1
f 3/3/1 52/54/2 27/29/3 2/2/4
s 0
f 101/103/5 4/4/5 1/1/5
f 95/97/5 4/4/5 101/103/5
s 1
f 53/55/6 28/30/7 50/52/8 5/5/9
f 7/7/10 34/36/11 70/72/12
s 0
f 90/92/5 61/63/5 57/59/5
s 1
f 65/67/13 63/65/14 59/61/15 62/64/16
s 0
f 90/92/5 57/59/5 95/97/5
s 1
f 89/91/17 49/51/18 19/19/19
s 0
f 83/85/5 66/68/5 21/21/5
s 1
f 85/87/20 81/83/21 84/86/22 20/20/23
s 0
f 78/80/24 82/84/24 67/69/24
s 1
f 80/82/25 81/83/21 77/79/26
s 0
f 17/17/5 6/6/5 79/81/5
f 17/17/5 10/10/5 6/6/5
s 1
f 9/9/27 36/38/28 34/36/11 7/7/10
f 76/78/29 73/75/30 37/39/31 8/8/32
f 14/14/33 43/45/34 11/11/35
f 11/11/35 43/45/34 39/41/36
s 0
f 92/94/24 51/53/24 30/32/24
f 98/100/24 103/105/24 26/28/24
f 95/97/5 57/59/5 54/56/5
f 92/94/24 30/32/24 32/34/24
s 1
f 56/58/37 33/35/38 29/31/39 55/57/40
f 70/72/12 34/36/11 68/70/41
s 0
f 48/50/24 92/94/24 32/34/24
s 1
f 94/96/42 93/95/43 47/49/44 88/90/45
s 0
f 82/84/24 87/89/24 64/66/24
s 1
f 70/72/12 68/70/41 63/65/14 65/67/13
s 0
f 83/85/5 69/71/5 66/68/5
f 79/81/5 69/71/5 83/85/5
f 42/44/24 45/47/24 38/40/24
f 45/47/24 35/37/24 38/40/24
f 78/80/24 67/69/24 35/37/24
f 42/44/24 38/40/24 72/74/24
f 23/25/5 1/1/5 25/27/5
s 1
f 75/77/46 39/41/36 71/73/47
s 0
f 87/89/24 48/50/24 60/62/24
f 79/81/5 6/6/5 69/71/5
s 1
f 16/16/48 46/48/49 41/43/50 13/13/51
s 0
f 12/12/5 74/76/5 15/15/5
s 1
f 100/102/52 99/101/53 91/93/54 96/98/55
f 24/26/56 104/106/57 22/23/58
s 0
f 98/100/24 26/28/24 51/53/24
s 1
f 22/22/58 104/107/57 97/99/59
s 0
f 45/47/24 78/80/24 35/37/24
f 40/42/24 42/44/24 72/74/24
s 1
f 11/11/35 39/41/36 75/77/46
f 84/86/22 81/83/21 80/82/25
s 0
f 21/21/5 61/63/5 90/92/5
s 1
f 22/24/58 97/99/59 102/104/60
s 0
f 101/103/5 1/1/5 23/25/5
f 95/97/5 54/56/5 4/4/5
s 1
f 62/64/16 59/61/15 31/33/61 58/60/62
s 0
f 48/50/24 32/34/24 60/62/24
f 87/89/24 60/62/24 64/66/24
f 82/84/24 64/66/24 67/69/24
f 15/15/5 10/10/5 17/17/5
f 15/15/5 74/76/5 10/10/5
s 1
f 80/82/25 77/79/26 44/46/63 18/18/64
s 0
f 21/21/5 66/68/5 61/63/5
s 1
f 19/19/19 49/51/18 86/88/65
s 0
f 92/94/24 98/100/24 51/53/24
f 111/122/66 123/146/66 117/135/66 105/110/66
f 119/138/5 121/141/5 108/116/5 106/111/5
f 125/149/67 127/153/67 122/144/67 118/136/67
f 126/151/68 114/128/68 109/119/68 120/140/68
f 107/115/69 110/120/69 116/133/69 112/125/69
f 113/127/24 115/130/24 128/155/24 124/147/24
s 1
f 3/3/1 4/4/70 5/5/9
f 8/8/32 9/9/27 10/10/71
f 13/13/51 14/14/33 15/15/72
f 16/16/48 17/17/73 18/18/64
f 19/19/19 20/20/23 21/21/74
f 28/30/7 29/31/39 30/32/75
f 31/33/61 32/34/76 33/35/38
f 36/38/28 37/39/31 38/40/77
f 41/43/50 42/44/78 43/45/34
f 44/46/63 45/47/79 46/48/49
f 47/49/44 48/50/80 49/51/18
f 50/52/8 51/53/81 52/54/2
f 53/55/6 54/56/82 55/57/40
f 56/58/37 57/59/83 58/60/62
f 71/73/47 72/74/84 73/75/30
s 0
f 74/76/85 75/77/85 76/78/85
s 1
f 85/87/20 86/88/65 87/89/86
f 88/90/45 89/91/17 90/92/87
f 91/93/54 92/94/88 93/95/43
f 94/96/42 95/97/89 96/98/55
f 97/99/59 98/100/90 99/101/53
f 100/102/52 101/103/91 102/104/60
s 0
f 105/110/92 106/113/92 107/114/92
f 108/118/93 109/119/93 110/121/93
f 111/123/94 112/125/94 113/126/94
f 114/129/95 115/130/95 116/131/95
f 117/134/96 118/136/96 119/137/96
f 120/140/97 121/142/97 122/143/97
f 123/145/98 124/147/98 125/148/98
f 126/151/99 127/152/99 128/154/99
s 1
f 2/2/4 24/26/56 25/27/100 1/1/101
s 0
f 1/1/102 4/4/102 3/3/102 2/2/102
f 15/15/103 17/17/103 16/16/103 13/13/103
s 1
f 50/52/8 28/30/7 30/32/75 51/53/81
f 68/70/41 34/36/11 35/37/104 67/69/105
f 34/36/11 36/38/28 38/40/77 35/37/104
f 27/29/3 52/54/2 51/53/81 26/28/106
s 0
f 4/4/107 54/56/107 53/55/107 5/5/107
f 54/56/108 57/59/108 56/58/108 55/57/108
f 57/59/109 61/63/109 62/64/109 58/60/109
s 1
f 31/33/61 59/61/15 60/62/110 32/34/76
f 59/61/15 63/65/14 64/66/111 60/62/110
s 0
f 66/68/112 69/71/112 70/72/112 65/67/112
s 1
f 63/65/14 68/70/41 67/69/105 64/66/111
s 0
f 10/10/113 74/76/113 76/78/113 8/8/113
s 1
f 73/75/30 76/78/29 75/77/46 71/73/47
s 0
f 17/17/114 79/81/114 80/82/114 18/18/114
s 1
f 44/46/63 77/79/26 78/80/115 45/47/79
f 77/79/26 81/83/21 82/84/116 78/80/115
s 0
f 79/81/117 83/85/117 84/86/117 80/82/117
s 1
f 81/83/21 85/87/20 87/89/86 82/84/116
f 93/95/43 94/96/42 96/98/55 91/93/54
f 47/49/44 93/95/43 92/94/88 48/50/80
f 99/101/53 100/102/52 102/104/60 97/99/59
f 91/93/54 99/101/53 98/100/90 92/94/88
s 0
f 23/25/118 25/27/118 24/26/118 22/23/118
f 101/103/119 23/25/119 22/24/119 102/104/119
f 95/97/120 101/103/120 100/102/120 96/98/120
f 90/92/121 95/97/121 94/96/121 88/90/121
f 21/21/122 90/92/122 89/91/122 19/19/122
f 61/63/123 66/68/123 65/67/123 62/64/123
f 83/85/124 21/21/124 20/20/124 84/86/124
f 69/71/125 6/6/125 7/7/125 70/72/125
f 6/6/126 10/10/126 9/9/126 7/7/126
f 12/12/127 15/15/127 14/14/127 11/11/127
f 74/76/128 12/12/128 11/11/128 75/77/128
f 26/28/129 103/105/129 104/108/129 27/29/129
s 1
f 97/99/59 104/107/57 103/105/130 98/100/90
f 29/31/39 33/35/38 32/34/76 30/32/75
f 86/88/65 49/51/18 48/50/80 87/89/86
f 41/43/50 46/48/49 45/47/79 42/44/78
f 37/39/31 73/75/30 72/74/84 38/40/77
f 71/73/47 39/41/36 40/42/131 72/74/84
f 39/41/36 43/45/34 42/44/78 40/42/131
f 52/54/2 3/3/1 5/5/9 50/52/8
f 28/30/7 53/55/6 55/57/40 29/31/39
f 33/35/38 56/58/37 58/60/62 31/33/61
f 36/38/28 9/9/27 8/8/32 37/39/31
f 46/48/49 16/16/48 18/18/64 44/46/63
f 85/87/20 20/20/23 19/19/19 86/88/65
f 43/45/34 14/14/33 13/13/51 41/43/50
f 49/51/18 89/91/17 88/90/45 47/49/44
s 0
f 111/123/132 105/109/132 107/115/132 112/125/132
f 106/112/133 108/117/133 110/120/133 107/115/133
f 109/119/134 114/128/134 116/132/134 110/121/134
f 115/130/135 113/127/135 112/125/135 116/133/135
f 123/145/136 111/124/136 113/127/136 124/147/136
f 114/129/137 126/150/137 128/155/137 115/130/137
f 127/153/138 125/149/138 124/147/138 128/155/138
f 117/135/139 123/146/139 125/149/139 118/136/139
f 126/151/140 120/140/140 122/144/140 127/153/140
f 121/141/141 119/138/141 118/136/141 122/144/141
f 105/110/142 117/135/142 119/139/142 106/113/142
f 120/140/143 109/119/143 108/118/143 121/142/143
s 1
f 27/29/3 104/108/57 24/26/56 2/2/4
