# Blender 3.3.3
# www.blender.org
o Triangle.Stick
v -0.337576 1.751209 0.057432
v -0.352881 1.743960 0.053835
v -0.333537 1.742249 0.075907
v -0.291617 1.748267 0.075908
v -0.270352 1.759029 0.057492
v -0.221677 1.726794 0.075908
v -0.184632 1.732785 0.057444
v 0.035699 1.624839 0.075923
v 0.067251 1.624591 0.057485
v 0.124442 1.428456 0.075907
v 0.144742 1.425899 0.057432
v 0.078028 1.391657 0.075919
v 0.076901 1.372889 0.057473
v -0.049776 1.360222 0.057453
v -0.015633 1.354560 0.057456
v -0.039207 1.368633 0.075924
v -0.104795 1.391777 0.057429
v -0.074386 1.388630 0.075909
v -0.328125 1.623080 0.057446
v -0.312640 1.633240 0.075908
v -0.360185 1.716130 0.053974
v -0.357314 1.698203 0.057431
v -0.341927 1.710303 0.075908
v 0.156647 1.525233 -0.057522
v 0.137277 1.512341 -0.075920
v 0.147589 1.426726 -0.057513
v 0.130546 1.441083 -0.075918
v 0.060375 1.365744 -0.057433
v 0.026109 1.370028 -0.075903
v -0.049747 1.360852 -0.057417
v -0.017716 1.364239 -0.075898
v -0.015324 1.354384 -0.057414
v -0.092193 1.405944 -0.075897
v -0.103909 1.391245 -0.056877
v -0.305831 1.625526 -0.075914
v -0.322174 1.615714 -0.056142
v -0.343918 1.712190 -0.075912
v -0.360036 1.701850 -0.055916
v -0.362820 1.718924 -0.054068
v -0.323688 1.743556 -0.075914
v -0.344904 1.746692 -0.054189
v -0.329368 1.754377 -0.053853
v -0.234805 1.752878 -0.055768
v -0.264967 1.743731 -0.075922
v -0.066328 1.671654 -0.057423
v -0.133467 1.679404 -0.075873
v -0.148558 1.688340 0.075910
v -0.072751 1.674276 0.057447
v 0.008228 1.650846 -0.057461
v -0.019343 1.649219 -0.075907
v 0.093129 1.607209 -0.057485
v 0.062074 1.608523 -0.075907
v 0.129547 1.533125 0.075914
v 0.147417 1.545720 0.057494
v 0.141448 1.469832 0.075907
v 0.161080 1.470731 0.057555
v -0.163345 1.465283 0.057430
v -0.132494 1.461661 0.075909
v -0.157306 1.485357 -0.075909
v -0.169880 1.471800 -0.056279
v -0.037361 -1.508155 0.000000
v -0.037361 -1.489677 0.018478
v -0.055839 -1.489677 0.000000
v -0.037361 1.489677 0.018478
v -0.037361 1.508155 0.000000
v -0.055839 1.489677 0.000000
v -0.037361 -1.508155 -0.000000
v -0.055839 -1.489677 -0.000000
v -0.037361 -1.489677 -0.018478
v -0.037361 1.508155 0.000000
v -0.037361 1.489677 -0.018478
v -0.055839 1.489677 -0.000000
v 0.037361 -1.508155 0.000000
v 0.055839 -1.489677 0.000000
v 0.037361 -1.489677 0.018478
v 0.037361 1.508155 0.000000
v 0.037361 1.489677 0.018478
v 0.055839 1.489677 0.000000
v 0.037361 -1.508155 -0.000000
v 0.037361 -1.489677 -0.018478
v 0.055839 -1.489677 -0.000000
v 0.037361 1.508155 0.000000
v 0.055839 1.489677 -0.000000
v 0.037361 1.489677 -0.018478
vn -0.9411 0.0746 0.3297
vn -0.7615 0.5793 0.2906
vn -0.9221 0.1998 -0.3312
vn 0.1154 0.9401 0.3207
vn 0.3692 0.8356 0.4067
vn 0.2502 0.8958 -0.3674
vn 0.3519 0.8885 0.2946
vn 0.3087 0.9131 -0.2663
vn -0.0000 -0.0000 1.0000
vn 0.5171 0.7632 0.3874
vn 0.8055 0.4343 0.4033
vn 0.6089 0.6860 -0.3984
vn -0.0000 0.0001 1.0000
vn -0.7605 -0.5388 -0.3624
vn -0.6797 -0.6326 -0.3712
vn -0.6677 -0.6274 0.4007
vn -0.7731 -0.5155 0.3695
vn -0.0000 -1.0000 -0.0000
vn -0.0000 0.0003 1.0000
vn 0.7636 -0.5367 0.3591
vn 0.3749 -0.8584 0.3500
vn 0.7810 -0.4751 -0.4053
vn 0.3742 -0.8471 -0.3774
vn 0.0369 -0.9381 0.3445
vn -0.0039 -0.9739 -0.2267
vn -0.0001 -0.0000 1.0000
vn 0.3643 0.8860 -0.2869
vn -0.0001 -0.0000 -1.0000
vn -0.0000 -0.0000 -1.0000
vn 0.0002 0.0001 -1.0000
vn 0.0001 -0.0006 -1.0000
vn 0.8683 0.2734 -0.4139
vn 0.9210 -0.0797 0.3814
vn -0.0001 -0.0001 -1.0000
vn -0.6008 -0.7114 -0.3646
vn -0.6408 0.6935 -0.3292
vn -0.2248 0.9446 -0.2390
vn -0.0000 -0.0001 1.0000
vn -0.0001 -0.0002 -1.0000
vn -0.0000 0.0001 -1.0000
vn -0.0001 0.0006 1.0000
vn -0.3507 -0.8705 -0.3452
vn -0.3380 -0.9021 0.2683
vn -0.6250 -0.6830 0.3781
vn -0.8994 -0.2479 -0.3600
vn -0.8961 -0.2218 0.3846
vn -0.0001 0.0009 -1.0000
vn -0.0000 -0.0001 -1.0000
vn 1.0000 -0.0000 -0.0000
vn -0.0000 1.0000 -0.0000
vn -1.0000 -0.0000 -0.0000
vn -0.3039 0.9202 0.2468
vn -0.3218 0.4730 0.8202
vn -0.1176 -0.5188 0.8468
vn -0.4576 -0.0084 0.8891
vn -0.0538 -0.5542 -0.8306
vn -0.7633 -0.0548 -0.6437
vn -0.3795 0.7883 -0.4843
vn -0.5773 -0.5774 0.5774
vn -0.5774 0.5773 0.5773
vn -0.5773 -0.5774 -0.5774
vn -0.5773 0.5774 -0.5774
vn 0.5773 -0.5774 0.5774
vn 0.5774 0.5773 0.5773
vn 0.5773 -0.5774 -0.5774
vn 0.5774 0.5773 -0.5773
vn -0.1140 0.8973 0.4265
vn -0.7294 0.1930 0.6563
vn 0.2182 0.7113 0.6682
vn 0.2936 0.5601 0.7747
vn -0.6613 -0.2540 0.7058
vn 0.2835 0.8123 0.5097
vn 0.4531 0.4622 0.7623
vn -0.4897 -0.5129 0.7050
vn 0.6715 0.1244 0.7305
vn 0.6503 -0.2525 0.7165
vn 0.4886 -0.6213 0.6126
vn -0.5051 -0.4021 0.7636
vn -0.4116 -0.7198 0.5590
vn 0.1374 -0.6971 0.7037
vn 0.0507 0.5345 -0.8437
vn -0.2075 0.5293 -0.8227
vn -0.4712 0.0441 -0.8809
vn 0.1446 0.3218 -0.9357
vn -0.3516 -0.2511 -0.9018
vn 0.1610 0.5051 -0.8479
vn 0.2490 0.3887 -0.8871
vn 0.4032 0.0854 -0.9111
vn -0.2794 -0.2609 -0.9240
vn 0.3731 -0.1921 -0.9077
vn -0.2741 -0.3224 -0.9061
vn 0.1191 -0.5122 -0.8506
vn -0.7071 -0.7071 -0.0000
vn -0.7071 -0.0000 0.7071
vn -0.7071 0.7071 -0.0000
vn -0.7071 -0.0000 -0.7071
vn -0.0000 -0.7071 -0.7071
vn -0.0000 0.7071 -0.7071
vn 0.7071 -0.0000 -0.7071
vn 0.7071 -0.7071 -0.0000
vn 0.7071 0.7071 -0.0000
vn 0.7071 -0.0000 0.7071
vn -0.0000 -0.7071 0.7071
vn -0.0000 0.7071 0.7071
vt 0.054300 0.491211
vt 0.047510 0.487995
vt 0.056092 0.487236
vt 0.074689 0.489906
vt 0.084122 0.494680
vt 0.084277 0.495174
vt 0.084051 0.495213
vt 0.105716 0.480380
vt 0.122150 0.483038
vt 0.122268 0.483260
vt 0.219895 0.435150
vt 0.233893 0.435039
vt 0.234056 0.435510
vt 0.234228 0.435382
vt 0.259265 0.348028
vt 0.268270 0.346894
vt 0.238674 0.331703
vt 0.238174 0.323377
vt 0.238405 0.323087
vt 0.238233 0.323030
vt 0.181968 0.317743
vt 0.197136 0.315169
vt 0.186665 0.321489
vt 0.157568 0.331756
vt 0.171059 0.330360
vt 0.058492 0.434369
vt 0.058323 0.434191
vt 0.065362 0.438876
vt 0.044270 0.475649
vt 0.045544 0.467696
vt 0.052370 0.473064
vt 0.273552 0.390961
vt 0.274091 0.391381
vt 0.274284 0.390892
vt 0.264958 0.385242
vt 0.269647 0.347118
vt 0.269533 0.347261
vt 0.270158 0.347202
vt 0.269842 0.346809
vt 0.261973 0.353630
vt 0.230843 0.320207
vt 0.215641 0.322108
vt 0.181998 0.318052
vt 0.196199 0.319540
vt 0.197245 0.315258
vt 0.163159 0.338041
vt 0.157975 0.331545
vt 0.068383 0.435455
vt 0.061133 0.431101
vt 0.051486 0.473901
vt 0.044336 0.469314
vt 0.043101 0.476888
vt 0.060461 0.487816
vt 0.051049 0.489207
vt 0.057941 0.492616
vt 0.099892 0.491951
vt 0.099893 0.492457
vt 0.100146 0.492469
vt 0.086511 0.487893
vt 0.174520 0.455705
vt 0.174633 0.455918
vt 0.144848 0.459356
vt 0.138154 0.463320
vt 0.171670 0.456654
vt 0.171784 0.457081
vt 0.207709 0.446687
vt 0.207874 0.447012
vt 0.195477 0.445965
vt 0.245373 0.427328
vt 0.245621 0.427815
vt 0.245821 0.427677
vt 0.231596 0.427912
vt 0.261529 0.394462
vt 0.269457 0.400050
vt 0.269870 0.400472
vt 0.269978 0.400149
vt 0.266809 0.366384
vt 0.275518 0.366783
vt 0.276266 0.366924
vt 0.276223 0.366497
vt 0.131657 0.364416
vt 0.145280 0.362759
vt 0.134273 0.373271
vt 0.128695 0.367257
vt 0.204871 0.559560
vt 0.250506 0.632005
vt 0.250506 0.423848
vt 0.204871 0.586702
vt 0.195889 0.559560
vt 0.250506 0.450990
vt 0.304126 0.423848
vt 0.304126 0.632005
vt 0.349762 0.559560
vt 0.304459 0.450990
vt 0.304459 0.632005
vt 0.304126 0.450990
vt 0.204871 0.559560
vt 0.195889 0.559560
vt 0.250506 0.450990
vt 0.250506 0.487114
vt 0.204871 0.532417
vt 0.349762 0.559560
vt 0.304459 0.450990
vt 0.304459 0.487114
vt 0.304126 0.478132
vt 0.304126 0.487114
vt 0.304126 0.450990
vt 0.241192 0.559560
vt 0.250174 0.559560
vt 0.250506 0.559560
vt 0.250506 0.595684
vt 0.241192 0.586702
vt 0.313441 0.559560
vt 0.304459 0.595684
vt 0.304126 0.595684
vt 0.304126 0.586702
vt 0.304126 0.559560
vt 0.241192 0.559560
vt 0.241192 0.532417
vt 0.250506 0.523435
vt 0.250174 0.559560
vt 0.250506 0.559560
vt 0.304459 0.523435
vt 0.313441 0.559560
vt 0.304126 0.532417
vt 0.304126 0.559560
vt 0.304126 0.523435
s 1
f 21/29/1 2/2/2 39/52/3
f 5/6/4 7/10/5 43/56/6
f 7/10/5 48/65/7 45/60/8
s 0
f 58/82/9 53/73/9 20/28/9
s 1
f 9/14/10 54/75/11 51/69/12
s 0
f 20/28/13 8/11/13 47/63/13
s 1
f 36/49/14 60/84/15 57/81/16 19/27/17
s 0
f 67/97/18 79/118/18 73/108/18 61/85/18
f 58/82/19 12/17/19 10/15/19
s 1
f 11/16/20 13/19/21 26/36/22
f 28/41/23 13/20/21 15/22/24 32/45/25
s 0
f 18/25/26 12/17/26 58/82/26
s 1
f 48/64/7 49/67/27 45/61/8
s 0
f 37/50/28 40/53/28 44/59/28
f 35/48/29 50/68/29 52/72/29
f 35/48/30 37/50/30 46/62/30
f 37/50/31 44/59/31 46/62/31
s 1
f 54/74/11 24/33/32 51/71/12
s 0
f 59/83/29 25/35/29 27/40/29
s 1
f 54/76/11 56/79/33 24/32/32
s 0
f 33/46/34 27/40/34 29/42/34
f 31/44/34 33/46/34 29/42/34
s 1
f 57/81/16 60/84/15 34/47/35
f 2/2/2 41/54/36 39/52/3
s 0
f 23/31/9 6/8/9 4/4/9
f 23/31/9 4/4/9 3/3/9
f 23/31/9 47/63/9 6/8/9
s 1
f 5/5/4 43/57/6 42/55/37
s 0
f 20/28/38 53/73/38 8/11/38
s 1
f 7/9/5 45/61/8 43/58/6
s 0
f 58/82/38 55/77/38 53/73/38
s 1
f 9/12/10 51/70/12 49/67/27
f 56/80/33 11/16/20 26/37/22
f 48/65/7 9/13/10 49/66/27
s 0
f 33/46/39 59/83/39 27/40/39
s 1
f 56/78/33 26/38/22 24/34/32
s 0
f 35/48/40 52/72/40 25/35/40
f 58/82/9 10/15/9 55/77/9
f 16/23/41 12/17/41 18/25/41
s 1
f 34/47/35 30/43/42 14/21/43 17/24/44
f 38/51/45 19/27/17 22/30/46
s 0
f 35/48/47 46/62/47 50/68/47
f 59/83/48 35/48/48 25/35/48
f 20/28/9 47/63/9 23/31/9
s 1
f 13/18/21 28/41/23 26/39/22
f 17/24/44 57/81/16 34/47/35
f 36/49/14 19/26/17 38/51/45
s 0
f 75/111/9 77/115/9 64/92/9 62/86/9
f 81/122/49 83/126/49 78/117/49 74/110/49
f 82/124/50 70/102/50 65/93/50 76/113/50
f 63/90/51 66/96/51 72/107/51 68/99/51
f 69/100/29 71/106/29 84/127/29 80/120/29
s 1
f 1/1/52 2/2/2 3/3/53
f 14/21/43 15/22/24 16/23/54
f 21/29/1 22/30/46 23/31/55
f 30/43/42 31/44/56 32/45/25
s 0
f 37/50/57 38/51/57 39/52/57
f 40/53/58 41/54/58 42/55/58
f 61/85/59 62/88/59 63/89/59
f 64/91/60 65/94/60 66/96/60
f 67/97/61 68/98/61 69/101/61
f 70/103/62 71/105/62 72/107/62
f 73/108/63 74/109/63 75/112/63
f 76/114/64 77/115/64 78/116/64
f 79/118/65 80/119/65 81/121/65
f 82/123/66 83/125/66 84/127/66
f 3/3/67 4/4/67 5/7/67 1/1/67
f 23/31/68 3/3/68 2/2/68 21/29/68
f 4/4/69 6/8/69 7/10/69 5/6/69
f 6/8/70 47/63/70 48/65/70 7/10/70
f 20/28/71 23/31/71 22/30/71 19/27/71
f 47/63/72 8/11/72 9/13/72 48/65/72
f 8/11/73 53/73/73 54/75/73 9/14/73
f 58/82/74 20/28/74 19/27/74 57/81/74
f 53/73/75 55/77/75 56/79/75 54/76/75
f 55/77/76 10/15/76 11/16/76 56/80/76
f 10/15/77 12/17/77 13/19/77 11/16/77
f 18/25/78 58/82/78 57/81/78 17/24/78
f 16/23/79 18/25/79 17/24/79 14/21/79
f 12/17/80 16/23/80 15/22/80 13/20/80
s 1
f 42/55/37 43/57/6 44/59/81 40/53/82
f 39/52/3 41/54/36 40/53/82 37/50/83
f 43/58/6 45/61/8 46/62/84 44/59/81
f 36/49/14 38/51/45 37/50/83 35/48/85
f 45/61/8 49/67/27 50/68/86 46/62/84
f 49/67/27 51/70/12 52/72/87 50/68/86
f 51/71/12 24/33/32 25/35/88 52/72/87
f 60/84/15 36/49/14 35/48/85 59/83/89
f 24/34/32 26/38/22 27/40/90 25/35/88
f 34/47/35 60/84/15 59/83/89 33/46/91
f 26/39/22 28/41/23 29/42/92 27/40/90
f 30/43/42 34/47/35 33/46/91 31/44/56
f 28/41/23 32/45/25 31/44/56 29/42/92
f 41/54/36 2/2/2 1/1/52 42/55/37
f 32/45/25 15/22/24 14/21/43 30/43/42
f 21/29/1 39/52/3 38/51/45 22/30/46
s 0
f 67/97/93 61/85/93 63/89/93 68/98/93
f 62/87/94 64/91/94 66/96/94 63/90/94
f 65/94/95 70/103/95 72/107/95 66/96/95
f 71/106/96 69/100/96 68/99/96 72/107/96
f 79/118/97 67/97/97 69/101/97 80/119/97
f 70/104/98 82/123/98 84/127/98 71/106/98
f 83/126/99 81/122/99 80/120/99 84/127/99
f 73/108/100 79/118/100 81/122/100 74/110/100
f 82/124/101 76/113/101 78/117/101 83/126/101
f 77/115/102 75/111/102 74/110/102 78/117/102
f 61/85/103 73/108/103 75/112/103 62/88/103
f 76/114/104 65/95/104 64/92/104 77/115/104
s 1
f 1/1/52 5/7/4 42/55/37
