# Blender 3.3.3
# www.blender.org
o Triangle.BoyHappy
v 0.207430 1.946113 0.059818
v 0.197419 1.935107 0.074246
v 0.291234 1.340425 0.059755
v 0.276894 1.342193 0.074126
v 0.294574 0.956144 0.059785
v 0.279204 0.971720 0.074129
v 0.307135 0.768013 0.059778
v 0.293098 0.770475 0.074129
v 0.298777 0.529629 0.059795
v 0.285045 0.532585 0.074130
v 0.218960 0.338872 0.059766
v 0.199663 0.339402 0.074129
v 0.151564 0.296325 0.059766
v 0.154929 0.311326 0.074130
v -0.005989 0.287988 0.074131
v 0.035382 0.279810 0.059775
v -0.254455 0.364446 0.059767
v -0.234611 0.346090 0.059767
v -0.239214 0.366265 0.074129
v -0.295021 0.462809 0.059774
v -0.290006 0.432912 0.059767
v -0.282117 0.448810 0.074129
v -0.247582 0.816603 0.074133
v -0.260999 0.827194 0.059777
v -0.322835 1.738219 0.074169
v -0.338127 1.736821 0.059896
v -0.244650 1.849666 0.074133
v -0.248283 1.866091 0.059773
v 0.036787 1.977440 -0.077686
v 0.012231 1.983879 -0.063375
v 0.276568 1.334447 -0.077691
v 0.290664 1.330233 -0.063350
v 0.261356 0.430862 -0.077691
v 0.273445 0.421046 -0.063362
v -0.152697 0.304681 -0.063345
v -0.117105 0.304764 -0.077685
v -0.252431 0.925062 -0.066878
v -0.237797 0.917040 -0.077687
v 0.086443 1.983835 0.074487
v 0.099483 1.992488 0.060516
v 0.142810 1.970539 -0.077686
v 0.165521 1.973224 -0.063489
v 0.228501 1.908200 -0.077691
v 0.234521 1.923287 -0.063417
v 0.298625 1.779037 -0.077709
v 0.313946 1.779560 -0.063349
v 0.314755 1.781972 0.059829
v 0.301270 1.776591 0.074158
v 0.313113 1.624445 -0.077697
v 0.327624 1.625724 -0.063346
v 0.325926 1.567528 0.059804
v 0.311840 1.566359 0.074147
v 0.289550 0.823467 -0.077685
v 0.304262 0.785356 -0.063336
v 0.286890 0.563244 -0.077685
v 0.301566 0.565882 -0.063330
v 0.269913 0.420508 0.059771
v 0.258301 0.434015 0.074130
v 0.199268 0.339413 -0.077685
v 0.218960 0.338872 -0.063323
v 0.154181 0.311104 -0.077690
v 0.151564 0.296325 -0.063323
v -0.021218 0.290094 -0.077699
v 0.010330 0.279867 -0.063362
v -0.065088 0.292454 0.074129
v -0.107714 0.292498 0.059819
v -0.254415 0.364467 -0.063323
v -0.239258 0.366412 -0.077686
v -0.235014 0.345221 -0.063313
v -0.288498 0.430483 -0.063326
v -0.293370 0.460371 -0.070635
v -0.280062 0.445528 -0.077688
v -0.239022 1.065210 0.074134
v -0.254164 1.064116 0.059854
v -0.279379 1.324252 -0.063398
v -0.264957 1.328247 -0.077702
v -0.281909 1.424151 0.074105
v -0.296295 1.419552 0.059819
v -0.346334 1.598871 -0.063401
v -0.332733 1.596228 -0.077667
v -0.319952 1.546468 0.074135
v -0.336916 1.553520 0.059787
v -0.328961 1.763436 -0.063361
v -0.315791 1.754121 -0.077664
v -0.246103 1.865631 -0.063324
v -0.221540 1.868376 -0.077685
v -0.103002 1.948878 -0.063340
v -0.120099 1.927882 -0.077687
v -0.028050 1.965006 0.074128
v -0.059839 1.967090 0.059806
v -0.041477 -1.508155 0.004116
v -0.041477 -1.493793 0.018478
v -0.055839 -1.493793 0.004116
v -0.041477 1.493793 0.018478
v -0.041477 1.508155 0.004116
v -0.055839 1.493793 0.004116
v -0.041477 -1.508155 -0.004116
v -0.055839 -1.493793 -0.004116
v -0.041477 -1.493793 -0.018478
v -0.041477 1.508155 -0.004116
v -0.041477 1.493793 -0.018478
v -0.055839 1.493793 -0.004116
v 0.041477 -1.508155 0.004116
v 0.055839 -1.493793 0.004116
v 0.041477 -1.493793 0.018478
v 0.041477 1.508155 0.004116
v 0.041477 1.493793 0.018478
v 0.055839 1.493793 0.004116
v 0.041477 -1.508155 -0.004116
v 0.041477 -1.493793 -0.018478
v 0.055839 -1.493793 -0.004116
v 0.041477 1.508155 -0.004116
v 0.055839 1.493793 -0.004116
v 0.041477 1.493793 -0.018478
vn 0.1486 0.9360 0.3192
vn 0.5921 0.7057 0.3892
vn 0.3782 0.8541 -0.3570
vn -0.0017 -0.0088 1.0000
vn -0.0004 0.0008 1.0000
vn -0.8882 0.2555 0.3818
vn -0.5971 0.7047 0.3832
vn -0.8450 0.3699 -0.3862
vn -0.0000 0.0003 1.0000
vn -0.0000 -0.0000 -1.0000
vn 0.9146 -0.0655 0.3989
vn 0.9229 -0.0471 -0.3821
vn 0.9288 -0.0527 0.3667
vn -0.0000 -0.0001 1.0000
vn -0.0000 0.0001 1.0000
vn 0.9301 0.0155 0.3670
vn 0.9179 -0.1365 0.3727
vn 0.9197 -0.0861 -0.3831
vn -0.0000 -0.0000 1.0000
vn 0.9197 0.0094 -0.3924
vn 0.8509 -0.3625 -0.3802
vn 0.6701 -0.6444 -0.3685
vn 0.6715 -0.6371 0.3783
vn 0.3031 -0.8887 0.3439
vn 0.2990 -0.8877 -0.3500
vn -0.9376 -0.0139 0.3474
vn -0.9234 0.0592 0.3793
vn -0.8741 -0.0369 -0.4844
vn 0.8339 -0.3774 0.4026
vn -0.0000 0.0002 1.0000
vn 0.0609 -0.9360 0.3466
vn -0.2590 -0.8885 0.3787
vn 0.0212 -0.9371 -0.3485
vn 0.9247 -0.0067 -0.3806
vn 0.8824 0.2852 0.3742
vn 0.8902 0.2626 -0.3723
vn 0.6908 0.6236 -0.3660
vn -0.0000 -0.0002 -1.0000
vn -0.0000 -0.0002 1.0000
vn -0.0000 -0.0001 -1.0000
vn -0.0000 0.0001 -1.0000
vn -0.3208 -0.8713 -0.3714
vn -0.9129 -0.0436 0.4060
vn -0.8950 -0.1911 0.4030
vn -0.9048 -0.1352 -0.4038
vn -0.8898 0.0088 -0.4562
vn -0.3327 0.8644 0.3769
vn -0.1569 0.9246 -0.3471
vn -0.3595 0.8613 -0.3592
vn 0.9196 0.0344 0.3915
vn -0.0001 -0.0006 1.0000
vn -0.0001 0.0001 -1.0000
vn -0.0001 -0.0001 -1.0000
vn -0.7547 -0.5513 0.3555
vn -0.8828 -0.3145 0.3489
vn -0.8766 -0.3343 -0.3461
vn -0.7570 -0.5466 -0.3580
vn -0.0000 0.0007 -1.0000
vn -0.9074 -0.1442 0.3947
vn -0.9320 -0.0635 -0.3569
vn -0.0000 -1.0000 -0.0000
vn -0.6193 0.6881 -0.3781
vn -0.4901 -0.7789 0.3912
vn -0.5088 -0.7751 -0.3746
vn 1.0000 -0.0000 -0.0000
vn -0.0000 1.0000 -0.0000
vn -1.0000 -0.0000 -0.0000
vn -0.3142 -0.3192 0.8941
vn -0.4581 -0.0870 0.8847
vn -0.3207 -0.3041 -0.8970
vn -0.3889 -0.1338 -0.9115
vn -0.5774 -0.5774 0.5773
vn -0.5774 0.5773 0.5773
vn -0.5774 -0.5773 -0.5773
vn -0.5774 0.5773 -0.5773
vn 0.5774 -0.5773 0.5773
vn 0.5774 0.5773 0.5773
vn 0.5774 -0.5774 -0.5773
vn 0.5774 0.5773 -0.5773
vn -0.0646 -0.5657 -0.8220
vn 0.1790 -0.4250 -0.8873
vn -0.1088 -0.5581 -0.8226
vn 0.2860 -0.3523 -0.8911
vn 0.3849 -0.1444 -0.9116
vn 0.3986 -0.0455 -0.9160
vn -0.2823 0.0080 -0.9593
vn 0.3916 0.0077 -0.9201
vn 0.3686 -0.0213 -0.9293
vn -0.3480 -0.0567 -0.9358
vn -0.4204 -0.0370 -0.9066
vn 0.3986 -0.0091 -0.9171
vn -0.3892 0.1446 -0.9097
vn 0.4035 0.1361 -0.9048
vn -0.2695 0.3879 -0.8814
vn 0.3338 0.2632 -0.9052
vn -0.2202 0.4195 -0.8806
vn 0.1041 0.5861 -0.8035
vn 0.0021 0.5897 -0.8076
vn -0.0812 -0.9579 0.2754
vn 0.1013 -0.7044 0.7026
vn 0.4257 -0.6759 0.6016
vn -0.2541 -0.6002 0.7584
vn 0.5512 -0.3428 0.7607
vn 0.6825 -0.1828 0.7077
vn -0.6278 -0.3262 0.7067
vn -0.7066 0.0662 0.7045
vn 0.7159 -0.0246 0.6977
vn 0.7126 0.0484 0.6999
vn -0.7042 0.0222 0.7097
vn 0.6965 0.0052 0.7175
vn -0.6848 -0.0814 0.7241
vn 0.7053 -0.1089 0.7005
vn -0.6687 -0.2053 0.7146
vn 0.7161 0.0366 0.6970
vn -0.6644 -0.0075 0.7473
vn -0.6269 0.4380 0.6443
vn 0.5930 0.3880 0.7056
vn -0.3090 0.5785 0.7549
vn 0.2899 0.6605 0.6926
vn -0.1453 0.8892 0.4337
vn -0.7071 -0.7071 -0.0000
vn -0.7071 -0.0000 0.7071
vn -0.7071 0.7071 -0.0000
vn -0.7071 -0.0000 -0.7071
vn -0.0000 -0.7071 -0.7071
vn -0.0000 0.7071 -0.7071
vn 0.7071 -0.0000 -0.7071
vn 0.7071 -0.7071 -0.0000
vn 0.7071 0.7071 -0.0000
vn 0.7071 -0.0000 0.7071
vn -0.0000 -0.7071 0.7071
vn -0.0000 0.7071 0.7071
vt 0.907111 0.964726
vt 0.906920 0.964913
vt 0.906728 0.964475
vt 0.902204 0.959504
vt 0.944595 0.690790
vt 0.938116 0.691589
vt 0.946105 0.517150
vt 0.939160 0.524188
vt 0.951780 0.432141
vt 0.951972 0.432154
vt 0.945438 0.433254
vt 0.948004 0.324426
vt 0.948324 0.324415
vt 0.941799 0.325761
vt 0.911938 0.238230
vt 0.903218 0.238470
vt 0.881485 0.219005
vt 0.883005 0.225784
vt 0.810293 0.215238
vt 0.828987 0.211543
vt 0.698025 0.249788
vt 0.706958 0.241426
vt 0.704908 0.250608
vt 0.679691 0.294232
vt 0.681955 0.280722
vt 0.685522 0.287907
vt 0.701127 0.454097
vt 0.695065 0.458883
vt 0.667123 0.870537
vt 0.660214 0.869905
vt 0.659496 0.869894
vt 0.659694 0.870269
vt 0.702452 0.920895
vt 0.700810 0.928317
vt 0.700512 0.928526
vt 0.700652 0.928602
vt 0.829621 0.978631
vt 0.818526 0.981540
vt 0.818345 0.982114
vt 0.818566 0.982126
vt 0.937969 0.688089
vt 0.944190 0.686208
vt 0.944526 0.686161
vt 0.931095 0.279797
vt 0.936557 0.275362
vt 0.936849 0.275305
vt 0.744002 0.222781
vt 0.760084 0.222819
vt 0.698936 0.503105
vt 0.699164 0.503120
vt 0.705549 0.499480
vt 0.852059 0.981520
vt 0.857951 0.985430
vt 0.858311 0.986249
vt 0.857798 0.986347
vt 0.877529 0.975512
vt 0.887791 0.976725
vt 0.887834 0.977353
vt 0.888182 0.977262
vt 0.916249 0.947344
vt 0.918969 0.954161
vt 0.919470 0.954433
vt 0.919284 0.954593
vt 0.947935 0.888981
vt 0.954858 0.889217
vt 0.955224 0.890307
vt 0.955413 0.890325
vt 0.955711 0.890331
vt 0.955674 0.890602
vt 0.949131 0.887875
vt 0.954482 0.819127
vt 0.961039 0.819705
vt 0.961356 0.819734
vt 0.960272 0.793409
vt 0.960584 0.793424
vt 0.953907 0.792880
vt 0.943835 0.457199
vt 0.951316 0.440036
vt 0.950482 0.439978
vt 0.950341 0.439976
vt 0.942633 0.339615
vt 0.949264 0.340807
vt 0.949474 0.340805
vt 0.934961 0.275118
vt 0.929714 0.281222
vt 0.903040 0.238475
vt 0.911938 0.238230
vt 0.882667 0.225683
vt 0.881485 0.219005
vt 0.803412 0.216190
vt 0.817667 0.211569
vt 0.817615 0.211240
vt 0.783589 0.217256
vt 0.764328 0.217276
vt 0.764294 0.216864
vt 0.764153 0.216893
vt 0.698037 0.249794
vt 0.704889 0.250675
vt 0.706845 0.241184
vt 0.682642 0.279627
vt 0.680438 0.293131
vt 0.686451 0.286424
vt 0.704995 0.566432
vt 0.698153 0.565938
vt 0.698747 0.566009
vt 0.686759 0.683482
vt 0.687330 0.683520
vt 0.687311 0.683622
vt 0.693276 0.685288
vt 0.685616 0.728623
vt 0.679116 0.726544
vt 0.679546 0.726678
vt 0.655532 0.807268
vt 0.656505 0.807571
vt 0.655997 0.807442
vt 0.655977 0.807628
vt 0.662651 0.806377
vt 0.668426 0.783892
vt 0.660761 0.787079
vt 0.664356 0.881931
vt 0.663953 0.881974
vt 0.663999 0.882225
vt 0.670307 0.877722
vt 0.701795 0.928109
vt 0.712894 0.929349
vt 0.766457 0.965725
vt 0.758731 0.956237
vt 0.800324 0.973012
vt 0.785960 0.973954
vt 0.785748 0.974335
vt 0.785892 0.974364
vt 0.202870 0.565605
vt 0.250432 0.634006
vt 0.250432 0.423848
vt 0.202870 0.586702
vt 0.195889 0.565605
vt 0.250432 0.444945
vt 0.304200 0.423848
vt 0.304200 0.634006
vt 0.351762 0.565605
vt 0.304459 0.444945
vt 0.304459 0.634006
vt 0.304200 0.444945
vt 0.202870 0.553514
vt 0.195889 0.553514
vt 0.250432 0.457036
vt 0.250432 0.485114
vt 0.202870 0.532417
vt 0.351762 0.553514
vt 0.304459 0.457036
vt 0.304459 0.485114
vt 0.304200 0.478133
vt 0.304200 0.485114
vt 0.304200 0.457036
vt 0.243192 0.565605
vt 0.250174 0.565605
vt 0.250432 0.565605
vt 0.250432 0.593684
vt 0.243192 0.586702
vt 0.311440 0.565605
vt 0.304459 0.593684
vt 0.304200 0.593684
vt 0.304200 0.586702
vt 0.304200 0.565605
vt 0.243192 0.553514
vt 0.243192 0.532417
vt 0.250432 0.525436
vt 0.250174 0.553514
vt 0.250432 0.553514
vt 0.304459 0.525436
vt 0.311440 0.553514
vt 0.304200 0.532417
vt 0.304200 0.553514
vt 0.304200 0.525436
s 1
f 40/54/1 1/2/2 42/57/3
s 0
f 89/128/4 2/4/4 39/52/4
f 27/33/5 2/4/5 89/128/5
s 1
f 26/32/6 28/35/7 83/120/8
s 0
f 25/29/9 48/70/9 27/33/9
f 80/117/10 84/123/10 49/71/10
f 72/102/10 53/77/10 55/81/10
s 1
f 3/5/11 32/42/12 51/75/13
s 0
f 77/110/14 4/6/14 52/76/14
f 73/103/15 4/6/15 77/110/15
s 1
f 7/10/16 9/13/17 56/82/18
s 0
f 23/27/19 6/8/19 73/103/19
s 1
f 7/9/16 56/83/18 54/79/20
f 9/12/17 34/46/21 56/83/18
f 60/87/22 11/15/23 13/17/24 62/89/25
f 20/24/26 24/28/27 71/101/28
f 57/84/29 11/15/23 60/87/22 34/46/21
s 0
f 19/23/19 12/16/19 58/85/19
f 65/93/30 15/19/30 14/18/30
s 1
f 16/20/31 66/95/32 64/91/33
f 51/74/13 32/43/12 50/73/34
f 47/66/35 46/65/36 44/62/37
s 0
f 84/123/38 86/125/38 43/60/38
s 1
f 47/67/35 50/73/34 46/65/36
s 0
f 86/125/10 88/127/10 43/60/10
s 1
f 47/68/35 51/75/13 50/72/34
s 0
f 77/110/39 52/76/39 81/118/39
f 68/98/40 33/44/40 59/86/40
f 80/117/10 49/71/10 31/41/10
f 76/109/41 80/117/41 31/41/41
f 88/127/41 41/56/41 43/60/41
f 38/51/10 76/109/10 53/77/10
f 68/98/41 59/86/41 61/88/41
s 1
f 66/94/32 35/47/42 64/92/33
s 0
f 72/102/10 55/81/10 33/44/10
f 68/98/10 72/102/10 33/44/10
s 1
f 74/105/43 78/112/44 75/106/45
f 74/104/43 75/107/45 37/50/46
s 0
f 36/48/10 68/98/10 61/88/10
f 88/127/10 29/37/10 41/56/10
s 1
f 90/129/47 30/39/48 87/126/49
f 90/131/47 40/55/1 30/38/48
f 32/43/12 3/5/11 5/7/50 54/80/20
f 1/1/2 47/69/35 44/61/37
s 0
f 27/33/51 48/70/51 2/4/51
f 84/123/52 43/60/52 45/64/52
f 84/123/53 45/64/53 49/71/53
f 81/118/14 52/76/14 48/70/14
f 76/109/10 31/41/10 53/77/10
s 1
f 7/10/16 54/78/20 5/7/50
s 0
f 23/27/19 8/11/19 6/8/19
f 23/27/19 10/14/19 8/11/19
s 1
f 9/13/17 57/84/29 34/45/21
s 0
f 22/26/19 58/85/19 10/14/19
s 1
f 17/21/54 21/25/55 70/100/56 67/97/57
s 0
f 36/48/58 61/88/58 63/90/58
s 1
f 24/28/27 74/105/43 37/49/46
f 78/112/44 82/119/59 79/113/60
s 0
f 97/144/61 109/165/61 103/155/61 91/132/61
s 1
f 87/126/49 85/124/62 28/36/7 90/130/47
s 0
f 81/118/39 48/70/39 25/29/39
s 1
f 82/119/59 26/31/6 79/114/60
f 40/53/1 42/58/3 30/40/48
s 0
f 22/26/19 10/14/19 23/27/19
s 1
f 26/30/6 83/121/8 79/116/60
f 24/28/27 37/50/46 71/101/28
s 0
f 72/102/10 38/51/10 53/77/10
s 1
f 78/111/44 79/115/60 75/108/45
s 0
f 73/103/19 6/8/19 4/6/19
s 1
f 62/89/25 13/17/24 16/20/31 64/92/33
s 0
f 19/23/19 14/18/19 12/16/19
f 65/93/19 14/18/19 19/23/19
f 19/23/19 58/85/19 22/26/19
s 1
f 35/47/42 66/96/32 18/22/63 69/99/64
f 28/34/7 85/124/62 83/122/8
s 0
f 105/158/19 107/162/19 94/139/19 92/133/19
f 111/169/65 113/173/65 108/164/65 104/157/65
f 112/171/66 100/149/66 95/140/66 106/160/66
f 93/137/67 96/143/67 102/154/67 98/146/67
f 99/147/10 101/153/10 114/174/10 110/167/10
s 1
f 17/21/54 18/22/63 19/23/68
f 20/24/26 21/25/55 22/26/69
f 67/97/57 68/98/70 69/99/64
f 70/100/56 71/101/28 72/102/71
s 0
f 91/132/72 92/135/72 93/136/72
f 94/138/73 95/141/73 96/143/73
f 97/144/74 98/145/74 99/148/74
f 100/150/75 101/152/75 102/154/75
f 103/155/76 104/156/76 105/159/76
f 106/161/77 107/162/77 108/163/77
f 109/165/78 110/166/78 111/168/78
f 112/170/79 113/172/79 114/174/79
s 1
f 69/99/64 18/22/63 17/21/54 67/97/57
f 70/100/56 21/25/55 20/24/26 71/101/28
f 62/89/25 64/92/33 63/90/80 61/88/81
f 64/92/33 35/47/42 36/48/82 63/90/80
f 60/87/22 62/89/25 61/88/81 59/86/83
f 35/47/42 69/99/64 68/98/70 36/48/82
f 34/46/21 60/87/22 59/86/83 33/44/84
f 67/97/57 70/100/56 72/102/71 68/98/70
f 56/83/18 34/46/21 33/44/84 55/81/85
f 71/101/28 37/50/46 38/51/86 72/102/71
f 54/79/20 56/83/18 55/81/85 53/77/87
f 32/43/12 54/80/20 53/77/87 31/41/88
f 37/50/46 75/107/45 76/109/89 38/51/86
f 75/108/45 79/115/60 80/117/90 76/109/89
f 50/73/34 32/43/12 31/41/88 49/71/91
f 79/116/60 83/121/8 84/123/92 80/117/90
f 46/65/36 50/73/34 49/71/91 45/64/93
f 83/122/8 85/124/62 86/125/94 84/123/92
f 44/62/37 46/65/36 45/64/93 43/60/95
f 85/124/62 87/126/49 88/127/96 86/125/94
f 42/59/3 44/63/37 43/60/95 41/56/97
f 87/126/49 30/39/48 29/37/98 88/127/96
f 30/40/48 42/58/3 41/56/97 29/37/98
s 0
f 15/19/99 65/93/99 66/95/99 16/20/99
f 14/18/100 15/19/100 16/20/100 13/17/100
f 12/16/101 14/18/101 13/17/101 11/15/101
f 65/93/102 19/23/102 18/22/102 66/96/102
f 58/85/103 12/16/103 11/15/103 57/84/103
f 10/14/104 58/85/104 57/84/104 9/13/104
f 19/23/105 22/26/105 21/25/105 17/21/105
f 22/26/106 23/27/106 24/28/106 20/24/106
f 8/11/107 10/14/107 9/13/107 7/10/107
f 6/8/108 8/11/108 7/10/108 5/7/108
f 23/27/109 73/103/109 74/105/109 24/28/109
f 4/6/110 6/8/110 5/7/110 3/5/110
f 73/103/111 77/110/111 78/112/111 74/105/111
f 52/76/112 4/6/112 3/5/112 51/75/112
f 77/110/113 81/118/113 82/119/113 78/112/113
f 48/70/114 52/76/114 51/75/114 47/68/114
f 81/118/115 25/29/115 26/31/115 82/119/115
f 25/29/116 27/33/116 28/35/116 26/32/116
f 2/4/117 48/70/117 47/69/117 1/1/117
f 27/33/118 89/128/118 90/130/118 28/36/118
f 39/52/119 2/4/119 1/2/119 40/54/119
f 89/128/120 39/52/120 40/55/120 90/131/120
f 97/144/121 91/132/121 93/136/121 98/145/121
f 92/134/122 94/138/122 96/143/122 93/137/122
f 95/141/123 100/150/123 102/154/123 96/143/123
f 101/153/124 99/147/124 98/146/124 102/154/124
f 109/165/125 97/144/125 99/148/125 110/166/125
f 100/151/126 112/170/126 114/174/126 101/153/126
f 113/173/127 111/169/127 110/167/127 114/174/127
f 103/155/128 109/165/128 111/169/128 104/157/128
f 112/171/129 106/160/129 108/164/129 113/173/129
f 107/162/130 105/158/130 104/157/130 108/164/130
f 91/132/131 103/155/131 105/159/131 92/135/131
f 106/161/132 95/142/132 94/139/132 107/162/132
s 1
f 1/3/2 44/63/37 42/59/3
