# Blender 3.3.3
# www.blender.org
o Triangle.Sweat
v -0.167786 1.411955 0.090629
v -0.185590 1.419615 0.073412
v 0.194924 1.483608 0.061628
v 0.209214 1.461221 0.044291
v -0.125781 1.351264 0.090447
v -0.120374 1.327628 0.073702
v -0.180007 1.403830 -0.060487
v -0.195639 1.419447 -0.042743
v -0.197851 1.529788 -0.047682
v -0.190435 1.553973 -0.049314
v -0.182742 1.540288 -0.066578
v -0.058444 1.622272 -0.079160
v -0.056048 1.641839 -0.062915
v 0.034601 1.600948 -0.084770
v 0.038397 1.619909 -0.067871
v 0.191904 1.427437 -0.087927
v 0.200937 1.455841 -0.072519
v -0.070868 1.296676 -0.045978
v -0.060084 1.312451 -0.064768
v -0.185225 1.545010 0.066734
v -0.166274 1.556782 0.083851
v -0.178131 1.568738 0.063531
v -0.139907 1.589335 -0.071871
v -0.142710 1.607253 -0.055165
v -0.120077 1.621812 0.058689
v -0.114691 1.605127 0.077970
v -0.028499 1.647309 0.052613
v -0.026254 1.629846 0.070565
v 0.076034 1.609125 0.046922
v 0.059640 1.597735 0.065958
v 0.178275 1.514515 -0.073616
v 0.156702 1.518580 -0.089628
v 0.159525 1.539616 -0.071930
v 0.167638 1.544967 0.043380
v 0.185678 1.508720 0.061127
v 0.186552 1.519895 0.043195
v 0.179705 1.369415 -0.067035
v 0.190028 1.399334 -0.086499
v 0.195896 1.395532 -0.069385
v 0.189178 1.373061 0.049771
v 0.204173 1.400911 0.047426
v 0.187391 1.393477 0.066312
v 0.128213 1.327690 0.056289
v 0.112946 1.335050 0.074278
v 0.097471 1.315563 0.058431
v 0.061011 1.304924 -0.055660
v 0.060544 1.321022 -0.073713
v 0.092854 1.315246 -0.058450
v -0.027219 1.320752 0.084868
v -0.041446 1.301395 0.068981
v -0.156437 1.346974 -0.042285
v -0.165022 1.374250 -0.060186
v -0.038545 -1.508155 0.001184
v -0.038545 -1.490861 0.018478
v -0.055839 -1.490861 0.001184
v -0.038545 1.490861 0.018478
v -0.038545 1.508155 0.001185
v -0.055839 1.490861 0.001185
v -0.038545 -1.508155 -0.001185
v -0.055839 -1.490861 -0.001185
v -0.038545 -1.490861 -0.018478
v -0.038545 1.508155 -0.001185
v -0.038545 1.490861 -0.018478
v -0.055839 1.490861 -0.001185
v 0.038545 -1.508155 0.001184
v 0.055839 -1.490862 0.001185
v 0.038545 -1.490862 0.018478
v 0.038545 1.508155 0.001185
v 0.038545 1.490861 0.018478
v 0.055839 1.490861 0.001185
v 0.038545 -1.508155 -0.001185
v 0.038545 -1.490861 -0.018478
v 0.055839 -1.490862 -0.001185
v 0.038545 1.508155 -0.001185
v 0.055839 1.490861 -0.001185
v 0.038545 1.490861 -0.018478
vn 0.9016 0.1609 -0.4014
vn 0.9602 0.1049 0.2589
vn 0.9261 -0.2401 0.2910
vn 0.9219 -0.3209 -0.2170
vn -0.9008 0.1514 0.4070
vn -0.9589 0.0939 -0.2679
vn -0.9479 -0.2096 -0.2398
vn 0.0706 0.0459 0.9964
vn 0.4651 0.8211 0.3309
vn 0.6412 0.7039 0.3055
vn 0.6052 0.6810 -0.4123
vn -0.0706 -0.0459 -0.9964
vn -0.4838 -0.7547 0.4431
vn -0.6680 -0.6851 -0.2905
vn -0.2415 -0.9117 -0.3325
vn -0.7743 0.5350 0.3380
vn -0.5500 0.7530 -0.3611
vn -0.8416 0.4573 -0.2875
vn 0.0559 0.9407 0.3345
vn 0.3334 0.8350 -0.4378
vn -0.0957 0.9037 -0.4172
vn -0.0705 -0.0459 -0.9965
vn -0.4254 0.8335 0.3525
vn 0.6072 -0.6877 -0.3980
vn 0.7086 -0.6372 0.3032
vn 0.4869 -0.8103 0.3261
vn 0.3775 -0.8305 -0.4095
vn 0.2233 -0.9042 0.3642
vn -0.0695 -0.8947 0.4413
vn -0.8888 -0.2253 0.3991
vn -0.0706 -0.0459 -0.9965
vn 0.1440 -0.9348 -0.3247
vn 0.7944 0.4245 -0.4344
vn 0.8577 0.4972 0.1312
vn -0.0000 -1.0000 -0.0000
vn -0.0000 -0.0000 1.0000
vn 1.0000 -0.0000 -0.0000
vn -0.0000 1.0000 -0.0000
vn -1.0000 -0.0000 -0.0000
vn -0.0000 -0.0000 -1.0000
vn -0.5138 0.1359 -0.8471
vn -0.3883 0.2525 0.8863
vn 0.2978 0.2552 -0.9199
vn 0.5661 0.3179 0.7606
vn 0.5297 -0.2601 -0.8073
vn 0.4872 -0.1943 0.8514
vn 0.2417 -0.3965 0.8856
vn 0.0454 -0.4538 -0.8899
vn -0.5773 -0.5774 0.5774
vn -0.5773 0.5774 0.5774
vn -0.5773 -0.5774 -0.5774
vn -0.5773 0.5774 -0.5774
vn 0.5774 -0.5774 0.5773
vn 0.5773 0.5774 0.5774
vn 0.5774 -0.5773 -0.5774
vn 0.5773 0.5774 -0.5774
vn 0.5358 -0.0354 -0.8436
vn 0.1125 0.3393 -0.9339
vn -0.1312 -0.4569 -0.8798
vn -0.1066 0.3816 -0.9182
vn -0.3356 0.3110 -0.8892
vn -0.5200 -0.3505 -0.7790
vn -0.5725 -0.2388 -0.7843
vn 0.8967 0.3467 0.2753
vn 0.7528 -0.0287 0.6576
vn 0.4234 0.5628 0.7099
vn 0.4903 -0.5447 0.6803
vn 0.2925 0.6965 0.6552
vn 0.1242 -0.6830 0.7198
vn -0.1478 0.7136 0.6848
vn -0.4864 0.5936 0.6411
vn -0.1390 -0.5805 0.8023
vn -0.7114 -0.4993 0.4946
vn -0.6845 0.0410 0.7279
vn -0.7071 -0.7071 -0.0000
vn -0.7071 -0.0000 0.7071
vn -0.7071 0.7071 -0.0000
vn -0.7071 -0.0000 -0.7071
vn -0.0000 -0.7071 -0.7071
vn -0.0000 0.7071 -0.7071
vn 0.7071 -0.0000 -0.7071
vn 0.7071 -0.7071 -0.0000
vn 0.7071 0.7071 -0.0000
vn 0.7071 -0.0000 0.7071
vn -0.0000 -0.7071 0.7071
vn -0.0000 0.7071 0.7071
vt 0.143256 0.980191
vt 0.147594 0.987357
vt 0.147354 0.987758
vt 0.147626 0.987749
vt 0.164066 0.814455
vt 0.153868 0.808179
vt 0.114643 0.963265
vt 0.104164 0.961028
vt 0.103411 0.961319
vt 0.103773 0.961682
vt 0.142783 0.980906
vt 0.149979 0.988009
vt 0.149998 0.988244
vt 0.199668 0.985378
vt 0.210310 0.981243
vt 0.204232 0.977651
vt 0.237188 0.918966
vt 0.245594 0.917819
vt 0.245973 0.917704
vt 0.246020 0.917956
vt 0.224672 0.877756
vt 0.232748 0.876022
vt 0.233139 0.875716
vt 0.233246 0.875870
vt 0.141697 0.812605
vt 0.153868 0.808179
vt 0.090032 0.935816
vt 0.090845 0.935842
vt 0.090340 0.935842
vt 0.090412 0.936139
vt 0.097918 0.929892
vt 0.203987 0.983041
vt 0.208335 0.974748
vt 0.214463 0.979012
vt 0.224940 0.956744
vt 0.232768 0.957993
vt 0.233084 0.958095
vt 0.233020 0.958242
vt 0.236472 0.951174
vt 0.236916 0.951265
vt 0.236774 0.951419
vt 0.228453 0.949924
vt 0.245027 0.909138
vt 0.245510 0.908918
vt 0.245488 0.909232
vt 0.236786 0.909275
vt 0.224568 0.863306
vt 0.224707 0.863243
vt 0.219644 0.871640
vt 0.180966 0.816457
vt 0.183791 0.825465
vt 0.192815 0.824128
vt 0.192836 0.824153
vt 0.175650 0.817795
vt 0.180966 0.816457
vt 0.115521 0.820497
vt 0.129119 0.814374
vt 0.126906 0.812432
vt 0.115032 0.820205
vt 0.126906 0.812432
vt 0.123772 0.820812
vt 0.096136 0.848925
vt 0.099841 0.856266
vt 0.091892 0.863285
vt 0.090405 0.876169
vt 0.097977 0.875274
vt 0.094158 0.861549
vt 0.097821 0.919872
vt 0.089890 0.926327
vt 0.116157 0.972731
vt 0.115712 0.973036
vt 0.115922 0.973274
vt 0.129009 0.975129
vt 0.204295 0.561300
vt 0.250485 0.632581
vt 0.204295 0.586702
vt 0.250485 0.449250
vt 0.195889 0.561300
vt 0.250485 0.640987
vt 0.304147 0.632581
vt 0.350337 0.561300
vt 0.304459 0.449250
vt 0.304459 0.632581
vt 0.304148 0.640987
vt 0.304147 0.449250
vt 0.204295 0.557820
vt 0.195889 0.557820
vt 0.250485 0.452730
vt 0.250485 0.486539
vt 0.204295 0.532417
vt 0.350337 0.557820
vt 0.304459 0.452730
vt 0.304459 0.486539
vt 0.304148 0.478132
vt 0.304147 0.486539
vt 0.304147 0.452730
vt 0.241768 0.561300
vt 0.250174 0.561300
vt 0.250485 0.561300
vt 0.250485 0.595108
vt 0.241768 0.586702
vt 0.312865 0.561300
vt 0.304459 0.595108
vt 0.304148 0.595108
vt 0.304148 0.586702
vt 0.304147 0.561300
vt 0.241768 0.557820
vt 0.241768 0.532417
vt 0.250485 0.524011
vt 0.250174 0.557820
vt 0.250485 0.557820
vt 0.304459 0.557820
vt 0.304459 0.524011
vt 0.312865 0.557820
vt 0.304147 0.557820
vt 0.304147 0.532417
vt 0.304147 0.524011
s 1
f 17/26/1 4/6/2 41/60/3 39/58/4
f 20/32/5 9/14/6 8/12/7
s 0
f 49/68/8 28/46/8 26/42/8
f 44/63/8 30/49/8 28/46/8
s 1
f 29/48/9 34/53/10 33/52/11
s 0
f 44/63/8 28/46/8 49/68/8
f 38/57/12 47/66/12 32/51/12
f 42/61/8 30/49/8 44/63/8
s 1
f 6/8/13 51/71/14 18/30/15
s 0
f 42/61/8 3/5/8 35/54/8
s 1
f 22/34/16 24/38/17 10/15/18
f 27/43/19 15/24/20 13/19/21
s 0
f 19/31/22 52/73/22 11/16/22
s 1
f 29/47/9 33/52/11 15/23/20
f 25/39/23 13/20/21 24/37/17
s 0
f 38/57/12 32/51/12 16/25/12
f 47/66/12 19/31/12 14/21/12
s 1
f 37/56/24 40/59/25 43/62/26 48/67/27
f 45/64/28 50/69/29 18/27/15
f 6/10/13 2/3/30 51/70/14
f 2/2/30 8/12/7 51/72/14
s 0
f 52/73/12 7/11/12 11/16/12
f 19/31/31 11/16/31 23/35/31
f 49/68/8 26/42/8 21/33/8
f 19/31/12 23/35/12 12/17/12
f 19/31/12 12/17/12 14/21/12
s 1
f 25/40/23 27/45/19 13/18/21
s 0
f 47/66/12 14/21/12 32/51/12
s 1
f 27/44/19 29/48/9 15/22/20
s 0
f 42/61/8 35/54/8 30/49/8
s 1
f 22/34/16 25/41/23 24/36/17
f 45/64/28 18/29/15 46/65/32
s 0
f 49/68/8 21/33/8 5/7/8
s 1
f 50/69/29 6/9/13 18/28/15
s 0
f 5/7/8 21/33/8 1/1/8
s 1
f 31/50/33 36/55/34 4/6/2 17/26/1
s 0
f 59/86/35 71/107/35 65/97/35 53/74/35
f 67/100/36 69/104/36 56/80/36 54/75/36
f 73/111/37 75/115/37 70/106/37 66/99/37
f 74/114/38 62/91/38 57/81/38 68/102/38
f 55/77/39 58/85/39 64/96/39 60/88/39
f 61/89/40 63/95/40 76/117/40 72/109/40
s 1
f 9/14/6 10/15/18 11/16/41
f 20/32/5 21/33/42 22/34/16
f 31/50/33 32/51/43 33/52/11
f 34/53/10 35/54/44 36/55/34
f 37/56/24 38/57/45 39/58/4
f 40/59/25 41/60/3 42/61/46
f 43/62/26 44/63/47 45/64/28
f 46/65/32 47/66/48 48/67/27
s 0
f 53/74/49 54/76/49 55/78/49
f 56/80/50 57/83/50 58/84/50
f 59/86/51 60/87/51 61/90/51
f 62/92/52 63/94/52 64/96/52
f 65/97/53 66/98/53 67/101/53
f 68/103/54 69/104/54 70/105/54
f 71/107/55 72/108/55 73/110/55
f 74/112/56 75/115/56 76/116/56
s 1
f 33/52/11 34/53/10 36/55/34 31/50/33
f 39/58/4 41/60/3 40/59/25 37/56/24
f 48/67/27 43/62/26 45/64/28 46/65/32
f 9/14/6 20/32/5 22/34/16 10/15/18
f 31/50/33 17/26/1 16/25/57 32/51/43
f 17/26/1 39/58/4 38/57/45 16/25/57
f 37/56/24 48/67/27 47/66/48 38/57/45
f 15/23/20 33/52/11 32/51/43 14/21/58
f 46/65/32 18/29/15 19/31/59 47/66/48
f 13/19/21 15/24/20 14/21/58 12/17/60
f 24/37/17 13/20/21 12/17/60 23/35/61
f 10/15/18 24/38/17 23/35/61 11/16/41
f 18/30/15 51/71/14 52/73/62 19/31/59
f 51/72/14 8/12/7 7/11/63 52/73/62
f 8/12/7 9/14/6 11/16/41 7/11/63
s 0
f 35/54/64 3/5/64 4/6/64 36/55/64
f 3/5/65 42/61/65 41/60/65 4/6/65
f 30/49/66 35/54/66 34/53/66 29/48/66
f 42/61/67 44/63/67 43/62/67 40/59/67
f 28/46/68 30/49/68 29/48/68 27/44/68
f 44/63/69 49/68/69 50/69/69 45/64/69
f 26/42/70 28/46/70 27/45/70 25/40/70
f 21/33/71 26/42/71 25/41/71 22/34/71
f 49/68/72 5/7/72 6/9/72 50/69/72
f 5/7/73 1/1/73 2/3/73 6/10/73
f 1/1/74 21/33/74 20/32/74 2/4/74
f 59/86/75 53/74/75 55/78/75 60/87/75
f 54/75/76 56/80/76 58/84/76 55/79/76
f 57/82/77 62/92/77 64/96/77 58/85/77
f 63/95/78 61/89/78 60/88/78 64/96/78
f 71/107/79 59/86/79 61/90/79 72/108/79
f 62/93/80 74/113/80 76/117/80 63/95/80
f 75/115/81 73/111/81 72/109/81 76/117/81
f 65/97/82 71/107/82 73/111/82 66/99/82
f 74/114/83 68/102/83 70/106/83 75/115/83
f 69/104/84 67/100/84 66/99/84 70/106/84
f 53/74/85 65/97/85 67/101/85 54/76/85
f 68/103/86 57/83/86 56/80/86 69/104/86
s 1
f 2/4/30 20/32/5 8/13/7
