# Blender 3.3.3
# www.blender.org
o Curtain.Back
v -3.543990 0.000000 -4.324382
v -3.543990 3.500000 -4.324382
v -3.543990 0.000000 -4.524383
v -3.543990 3.500000 -4.524383
v 3.543990 0.000000 -4.324382
v 3.543990 3.500000 -4.324382
v 3.543990 0.000000 -4.524383
v 3.543990 3.500000 -4.524383
v -3.543990 0.000000 -4.524383
v -3.543990 0.000000 -4.324382
v -3.543990 3.500000 -4.324382
v -3.543990 3.500000 -4.524383
v 3.543990 0.000000 -4.524383
v 3.543990 3.500000 -4.524383
v 3.543990 0.000000 -4.324382
v 3.543990 3.500000 -4.324382
vn 1.0000 -0.0000 -0.0000
vn -0.0000 -0.0000 1.0000
vn -1.0000 -0.0000 -0.0000
vn -0.0000 -0.0000 -1.0000
vn -0.0000 1.0000 -0.0000
vn -0.0000 -1.0000 -0.0000
vt 0.375000 0.000000
vt 0.375000 1.000000
vt 0.125000 0.750000
vt 0.625000 0.000000
vt 0.625000 1.000000
vt 0.875000 0.750000
vt 0.375000 0.250000
vt 0.125000 0.500000
vt 0.625000 0.250000
vt 0.875000 0.500000
vt 0.375000 0.750000
vt 0.625000 0.750000
vt 0.375000 0.500000
vt 0.625000 0.500000
vt 0.021872 0.018203
vt 0.021872 0.018203
vt 0.021872 0.983769
vt 0.021872 0.983769
vt 0.987438 0.018203
vt 0.987438 0.983769
vt 0.987438 0.018203
vt 0.987438 0.983769
s 0
f 1/1/1 3/7/1 4/9/1 2/4/1
f 3/7/2 7/13/2 8/14/2 4/9/2
f 7/13/3 5/11/3 6/12/3 8/14/3
f 5/11/4 1/2/4 2/5/4 6/12/4
f 3/8/5 1/3/5 5/11/5 7/13/5
f 8/14/6 6/12/6 2/6/6 4/10/6
f 10/16/3 11/17/3 12/18/3 9/15/3
f 9/15/4 12/18/4 14/20/4 13/19/4
f 13/19/1 14/20/1 16/22/1 15/21/1
f 15/21/2 16/22/2 11/17/2 10/16/2
f 9/15/6 13/19/6 15/21/6 10/16/6
f 14/20/5 12/18/5 11/17/5 16/22/5
