# Blender 3.3.3
# www.blender.org
o TextStick
v -0.041895 -1.508155 0.018478
v -0.052978 -1.489677 0.018478
v -0.052978 -1.508155 0.000000
v -0.041895 1.508155 0.018478
v -0.052978 1.508155 0.000000
v -0.052978 1.489677 0.018478
v -0.052978 -1.508155 -0.000000
v -0.052978 -1.489677 -0.018478
v -0.041895 -1.508155 -0.018478
v -0.041895 1.508155 -0.018478
v -0.052978 1.489677 -0.018478
v -0.052978 1.508155 -0.000000
v 0.052978 -1.508155 0.000000
v 0.052978 -1.489677 0.018478
v 0.041895 -1.508155 0.018478
v 0.041895 1.508155 0.018478
v 0.052978 1.489677 0.018478
v 0.052978 1.508155 0.000000
v 0.041895 -1.508155 -0.018478
v 0.052978 -1.489677 -0.018478
v 0.052978 -1.508155 -0.000000
v 0.052978 1.508155 -0.000000
v 0.052978 1.489677 -0.018478
v 0.041895 1.508155 -0.018478
v 0.123553 0.823514 0.078725
v 0.123866 0.823514 0.078725
v 0.123680 0.823516 0.078726
v 0.117157 0.790151 0.078726
v 0.124032 0.807641 0.060439
v -0.048560 0.693034 0.078718
v -0.059186 0.711159 0.078717
v -0.060287 0.711143 0.078717
v -0.068625 0.703518 0.078718
v -0.061701 0.693456 0.060577
v -0.144949 0.812829 0.072125
v -0.145070 0.797401 0.060341
v -0.139129 0.787191 0.065545
v -0.136064 0.784751 0.078727
v -0.144532 0.814030 0.078728
v -0.145046 0.814050 0.078728
v -0.144967 0.814050 0.078728
v -0.143357 1.181568 0.078715
v -0.143315 1.218524 0.078714
v -0.144235 1.218455 0.078714
v -0.143215 1.199104 0.060260
v -0.155868 1.447276 0.060618
v -0.155121 1.427787 0.069188
v -0.154990 1.425149 0.078717
v -0.155569 1.462026 0.078718
v -0.145278 1.963290 0.073412
v -0.145295 1.962513 0.078717
v -0.144877 1.962502 0.078717
v -0.144918 1.962502 0.078718
v -0.139688 1.997273 0.078715
v -0.144762 1.984225 0.060528
v -0.101338 2.097581 0.065466
v -0.107892 2.094174 0.060277
v -0.112237 2.085147 0.063436
v -0.113955 2.077470 0.078701
v -0.109243 2.075305 0.078699
v -0.108081 2.075317 0.078699
v -0.098105 2.099034 0.078701
v 0.121735 1.862415 0.071067
v 0.121276 1.880987 0.060322
v 0.119056 1.897327 0.078715
v 0.120551 1.860777 0.078715
v 0.121299 1.860739 0.078715
v 0.121681 1.860753 0.078715
v 0.121605 1.007675 0.060454
v 0.121917 1.022219 0.072323
v 0.122155 1.023354 0.078714
v 0.122061 0.986405 0.078715
v 0.122239 0.990820 0.066739
v 0.120482 0.810913 -0.073072
v 0.126205 0.845130 -0.073076
v 0.126404 0.845129 -0.073077
v 0.126170 0.845129 -0.073077
v 0.125668 0.845101 -0.073078
v 0.125942 0.840713 -0.061101
v 0.125980 0.824048 -0.054790
v 0.077175 0.694319 -0.054572
v 0.066258 0.694336 -0.073048
v 0.076051 0.712324 -0.073046
v 0.077580 0.712445 -0.073045
v 0.078016 0.712414 -0.073046
v 0.083145 0.709710 -0.073048
v -0.084798 0.711982 -0.073097
v -0.077211 0.717522 -0.073095
v -0.076202 0.717495 -0.073096
v -0.065800 0.698687 -0.073092
v -0.074821 0.698292 -0.054955
v -0.082800 0.707433 -0.059912
v -0.142887 1.173826 -0.073098
v -0.142867 1.175047 -0.066494
v -0.142830 1.193245 -0.054644
v -0.143595 1.208075 -0.063568
v -0.143584 1.210732 -0.073098
v -0.142787 1.210782 -0.073098
v -0.154868 1.493205 -0.073097
v -0.154455 1.456311 -0.073097
v -0.155352 1.471022 -0.054997
v -0.154909 1.492429 -0.067792
v -0.091260 2.102637 -0.073100
v -0.101513 2.078676 -0.073098
v -0.102465 2.078697 -0.073098
v -0.108671 2.082591 -0.073100
v -0.102678 2.096735 -0.054677
v -0.013411 2.131853 -0.073108
v -0.022663 2.119211 -0.073108
v -0.024630 2.119121 -0.073109
v -0.034533 2.132073 -0.073108
v -0.031341 2.133747 -0.059877
v -0.023961 2.137349 -0.054632
v 0.121908 1.875367 -0.073098
v 0.121497 1.875349 -0.073098
v 0.120735 1.875383 -0.073098
v 0.118801 1.911784 -0.073099
v 0.119567 1.907781 -0.061383
v 0.121393 1.892056 -0.054706
v 0.120129 1.009659 -0.073097
v 0.119649 1.046585 -0.073099
v 0.119794 1.025315 -0.054839
v 0.082561 0.711719 0.078726
v 0.076701 0.715273 0.078726
v 0.076283 0.715304 0.078726
v 0.074719 0.715188 0.078726
v 0.064914 0.696495 0.078725
v 0.076158 0.696484 0.060253
v -0.145202 0.829152 -0.073107
v -0.144604 0.829123 -0.073107
v -0.137309 0.797743 -0.073105
v -0.145205 0.808845 -0.054719
v -0.145107 0.829151 -0.073106
v -0.140125 2.016677 -0.057844
v -0.136807 2.022615 -0.073105
v -0.143660 1.989582 -0.073107
v -0.143615 1.989582 -0.073107
v -0.144038 1.989594 -0.073106
v -0.143788 2.004816 -0.054917
v -0.024018 2.136007 0.060239
v -0.034650 2.130520 0.078714
v -0.024483 2.117329 0.078716
v -0.022752 2.117436 0.078716
v -0.013417 2.130454 0.078716
v 0.095629 2.073120 -0.054626
v 0.097982 2.054949 -0.073098
v 0.095129 2.054433 -0.073098
v 0.084830 2.078618 -0.073099
v 0.097241 2.074446 0.060247
v 0.086890 2.079996 0.078718
v 0.097212 2.056187 0.078719
v 0.099702 2.056549 0.078718
v 0.099346 2.060704 0.067003
v 0.129578 1.527344 -0.073094
v 0.130640 1.527240 -0.073093
v 0.130259 1.564177 -0.073094
v 0.130276 1.562520 -0.065445
v 0.130583 1.543518 -0.054749
v 0.128663 1.516640 0.063819
v 0.129506 1.529713 0.060373
v 0.128910 1.545978 0.078717
v 0.129191 1.509036 0.078717
v 0.129071 1.509040 0.078717
v 0.122350 1.398242 -0.073099
v 0.122611 1.398241 -0.073098
v 0.123669 1.435092 -0.073098
v 0.123163 1.427591 -0.058200
v 0.122467 1.399381 -0.066708
vn -0.0000 -0.0000 1.0000
vn 1.0000 -0.0000 -0.0000
vn 0.9998 0.0170 -0.0042
vn 1.0000 0.0089 0.0044
vn 0.9944 -0.0670 0.0816
vn 0.9822 -0.1818 0.0466
vn 0.9857 -0.1646 -0.0372
vn 0.9986 -0.0291 -0.0442
vn -0.0000 1.0000 -0.0000
vn -1.0000 -0.0000 -0.0000
vn -0.0000 -0.0000 -1.0000
vn -0.0033 -0.9999 -0.0113
vn 0.0028 -0.0000 -1.0000
vn 0.0001 -0.0000 1.0000
vn 0.9998 0.0114 -0.0150
vn 0.9974 -0.0334 -0.0637
vn 0.9996 0.0280 -0.0057
vn 0.9999 0.0125 -0.0086
vn 0.9999 -0.0156 0.0062
vn 0.9995 -0.0292 -0.0094
vn 0.9994 -0.0353 -0.0071
vn 0.9986 -0.0527 0.0088
vn 0.9990 -0.0434 0.0077
vn 0.9998 -0.0189 0.0096
vn -1.0000 0.0064 0.0018
vn -1.0000 0.0055 -0.0006
vn -1.0000 0.0053 -0.0012
vn -0.0001 -0.0000 1.0000
vn -0.0002 -0.0000 1.0000
vn -0.9997 -0.0240 0.0033
vn -0.9991 -0.0409 0.0073
vn -0.9992 -0.0387 0.0096
vn -0.9993 -0.0377 0.0038
vn -0.9988 -0.0483 -0.0068
vn -0.9997 -0.0228 -0.0022
vn 0.0005 -0.0000 1.0000
vn -0.9999 -0.0138 0.0023
vn -0.9999 0.0091 0.0067
vn -0.9944 0.0765 0.0729
vn -0.9966 0.0632 0.0532
vn -0.9998 0.0109 -0.0141
vn -0.9998 -0.0103 -0.0147
vn 0.0003 -0.0000 -1.0000
vn -0.0027 -0.0000 1.0000
vn -0.0011 -0.0000 1.0000
vn -0.0003 -0.0000 -1.0000
vn 0.0002 -0.0000 -1.0000
vn 0.0001 -0.0000 -1.0000
vn -0.0047 -0.0000 1.0000
vn -0.0001 -0.0000 -1.0000
vn 0.4629 0.8864 -0.0031
vn 0.0002 -0.0000 1.0000
vn -1.0000 0.0044 -0.0036
vn -1.0000 -0.0029 0.0024
vn -0.0063 -0.0000 -1.0000
vn -0.9865 0.1540 0.0563
vn -0.9841 0.1732 -0.0401
vn -0.9924 0.1018 -0.0685
vn -0.9998 0.0086 -0.0187
vn -0.9992 -0.0338 -0.0198
vn -0.9989 -0.0442 -0.0135
vn -0.4525 0.8918 0.0046
vn -0.4445 0.8957 0.0102
vn -0.4526 0.8917 0.0045
vn 0.9983 0.0398 0.0417
vn 0.9976 0.0428 0.0539
vn 0.9999 0.0133 0.0099
vn 0.9999 0.0110 0.0114
vn -0.9323 0.3617 0.0102
vn -0.9049 0.4245 -0.0316
vn -0.9323 0.3524 -0.0821
vn -0.9475 0.3148 -0.0571
vn -0.4606 0.8876 -0.0011
vn 0.9912 0.1325 -0.0018
vn 0.9926 0.1207 0.0126
vn 0.9937 0.1060 0.0364
vn 0.9968 0.0722 0.0345
vn 0.9968 0.0761 -0.0237
vn 0.9926 0.1159 -0.0361
vn 0.9999 0.0097 0.0092
vn 0.9980 0.0513 -0.0364
vn -0.0006 -0.0000 -1.0000
vn 0.9998 -0.0137 -0.0176
vn 0.9996 -0.0042 -0.0270
vn 0.9998 -0.0033 -0.0220
vn 0.9998 -0.0182 -0.0113
vn -0.9631 0.2576 0.0787
vn -0.9512 0.3052 0.0464
vn 0.9280 -0.3724 -0.0111
vn 0.9531 -0.2990 -0.0474
vn 0.9439 -0.3281 0.0365
vn -0.7680 -0.6376 0.0605
vn -0.8150 -0.5794 0.0024
vn -0.8140 -0.5809 0.0038
vn 0.9895 0.1439 -0.0155
vn 0.9914 0.1221 -0.0474
vn -0.8517 -0.5215 -0.0509
vn 0.9999 -0.0030 -0.0114
vn 0.9998 -0.0191 0.0013
vn -0.7626 -0.4574 0.4574
vn -0.7626 0.4574 0.4574
vn -0.7626 -0.4574 -0.4574
vn -0.7626 0.4574 -0.4574
vn 0.7626 -0.4574 0.4574
vn 0.7626 0.4574 0.4574
vn 0.7626 -0.4574 -0.4574
vn 0.7626 0.4574 -0.4574
vn 0.9662 -0.1852 0.1794
vn -0.3358 -0.6428 0.6885
vn -0.9331 -0.2807 0.2247
vn -0.9995 -0.0238 0.0196
vn -0.9780 0.1394 0.1553
vn -0.7201 0.5553 0.4160
vn 0.9927 0.0653 0.1014
vn 0.9843 -0.1187 -0.1310
vn 0.5319 -0.5843 -0.6129
vn -0.5079 -0.6590 -0.5547
vn -0.9996 -0.0224 -0.0173
vn -0.6191 0.5377 -0.5723
vn -0.0556 0.7532 -0.6555
vn 0.9914 0.0880 -0.0965
vn 0.5013 -0.5811 0.6411
vn -0.9302 -0.2310 -0.2851
vn -0.9605 0.2234 -0.1659
vn 0.0021 0.6842 0.7293
vn 0.7771 0.4318 -0.4579
vn 0.8492 0.3884 0.3578
vn 0.9998 -0.0129 0.0167
vn 0.9999 -0.0130 0.0038
vn 0.9992 -0.0321 0.0220
vn -0.0000 -1.0000 -0.0000
vt 0.598423 0.477326
vt 0.549817 0.428719
vt 0.598756 0.265864
vt 0.598756 0.483004
vt 0.598423 0.293007
vt 0.544139 0.401577
vt 0.701315 0.428719
vt 0.652708 0.477326
vt 0.652708 0.293007
vt 0.706993 0.401577
vt 0.652376 0.483004
vt 0.652376 0.265864
vt 0.598423 0.293007
vt 0.544139 0.401577
vt 0.598756 0.320149
vt 0.598423 0.325827
vt 0.549817 0.374434
vt 0.652708 0.325827
vt 0.701315 0.374434
vt 0.652376 0.320149
vt 0.706993 0.401577
vt 0.652708 0.293007
vt 0.598423 0.401577
vt 0.598756 0.428719
vt 0.598423 0.434397
vt 0.592745 0.428719
vt 0.652708 0.434397
vt 0.658387 0.428719
vt 0.652376 0.428719
vt 0.652708 0.401577
vt 0.598423 0.368756
vt 0.592745 0.374434
vt 0.598756 0.374434
vt 0.598423 0.401577
vt 0.652708 0.401577
vt 0.652376 0.374434
vt 0.658387 0.374434
vt 0.652708 0.368756
vt 0.930314 0.143670
vt 0.930313 0.143813
vt 0.930313 0.143728
vt 0.945622 0.140839
vt 0.937586 0.143937
vt 0.990628 0.065192
vt 0.982355 0.060268
vt 0.982365 0.059763
vt 0.985885 0.055965
vt 0.990475 0.059168
vt 0.936023 0.020658
vt 0.943093 0.020649
vt 0.947754 0.023403
vt 0.948863 0.024814
vt 0.935471 0.020845
vt 0.935463 0.020610
vt 0.935463 0.020646
vt 0.767039 0.020271
vt 0.750103 0.020179
vt 0.750138 0.019758
vt 0.759002 0.020284
vt 0.645313 0.013734
vt 0.654242 0.014135
vt 0.655450 0.014203
vt 0.638553 0.013826
vt 0.408811 0.017026
vt 0.409168 0.017020
vt 0.409171 0.017212
vt 0.409172 0.017193
vt 0.393221 0.019485
vt 0.399217 0.017199
vt 0.347138 0.036756
vt 0.348719 0.033763
vt 0.352869 0.031799
vt 0.356392 0.031034
vt 0.357370 0.033200
vt 0.357362 0.033733
vt 0.346463 0.038233
vt 0.454231 0.139693
vt 0.445721 0.139426
vt 0.438240 0.138359
vt 0.454985 0.139155
vt 0.455000 0.139498
vt 0.454993 0.139673
vt 0.845926 0.142220
vt 0.839260 0.142319
vt 0.838739 0.142424
vt 0.855672 0.142493
vt 0.853648 0.142561
vt 0.418836 0.123510
vt 0.936098 0.142301
vt 0.406993 0.121610
vt 0.406993 0.121541
vt 0.406994 0.121622
vt 0.920415 0.144573
vt 0.407005 0.121795
vt 0.922425 0.144712
vt 0.930062 0.144780
vt 0.989659 0.122807
vt 0.459264 0.141991
vt 0.989685 0.117804
vt 0.453023 0.138646
vt 0.452978 0.138118
vt 0.452987 0.137967
vt 0.982588 0.125497
vt 0.453911 0.136188
vt 0.453508 0.194256
vt 0.982055 0.048528
vt 0.451576 0.191646
vt 0.451583 0.191297
vt 0.988090 0.057274
vt 0.458062 0.187658
vt 0.988298 0.053141
vt 0.984134 0.049457
vt 0.770585 0.020510
vt 0.293967 0.215393
vt 0.770026 0.020516
vt 0.761686 0.020478
vt 0.754893 0.020082
vt 0.281209 0.215719
vt 0.753675 0.020080
vt 0.281190 0.215443
vt 0.183575 0.220265
vt 0.624263 0.014053
vt 0.641168 0.014354
vt 0.196330 0.220038
vt 0.634430 0.013899
vt 0.624618 0.014037
vt -0.027270 0.199665
vt 0.344791 0.041358
vt -0.018963 0.203155
vt -0.018968 0.203484
vt 0.354030 0.033441
vt -0.020300 0.205638
vt 0.347530 0.036144
vt -0.037549 0.172817
vt 0.331167 0.076945
vt -0.033157 0.175987
vt -0.033121 0.176666
vt 0.331130 0.067265
vt -0.037577 0.180120
vt 0.330353 0.068723
vt 0.328680 0.072094
vt 0.050818 0.125447
vt 0.448295 0.139733
vt 0.050825 0.125589
vt 0.050815 0.125853
vt 0.431616 0.138199
vt 0.038234 0.126604
vt 0.433448 0.138562
vt 0.440648 0.139447
vt 0.350124 0.124086
vt 0.845021 0.141537
vt 0.828101 0.141206
vt 0.337359 0.124336
vt 0.837848 0.141337
vt 0.981669 0.125223
vt 0.980058 0.122526
vt 0.980045 0.122335
vt 0.980103 0.121619
vt 0.988699 0.117182
vt 0.988670 0.122335
vt 0.413137 0.215407
vt 0.413146 0.215200
vt 0.942913 0.024205
vt 0.423978 0.212607
vt 0.937849 0.020553
vt 0.413137 0.215374
vt 0.928543 0.020536
vt 0.384331 0.019226
vt 0.000500 0.215229
vt 0.381600 0.020728
vt 0.011936 0.217523
vt 0.011936 0.217508
vt 0.396754 0.017515
vt 0.011933 0.217654
vt 0.389777 0.017583
vt 0.329295 0.072072
vt 0.331842 0.067216
vt 0.337856 0.071915
vt 0.337802 0.072709
vt 0.331808 0.076947
vt 0.357752 0.127092
vt -0.011215 0.134129
vt 0.366072 0.128225
vt -0.011030 0.135114
vt 0.355265 0.122127
vt -0.019368 0.138730
vt 0.357139 0.127827
vt 0.354627 0.123066
vt 0.365507 0.127869
vt 0.365333 0.129008
vt 0.363430 0.128833
vt 0.171123 0.122001
vt 0.607757 0.144301
vt 0.171156 0.121633
vt 0.590876 0.144502
vt 0.158387 0.121849
vt 0.591636 0.144515
vt 0.600342 0.144713
vt 0.612665 0.143914
vt 0.606672 0.144261
vt 0.599220 0.143938
vt 0.616148 0.144179
vt 0.616147 0.144124
vt 0.215774 0.124205
vt 0.666942 0.141379
vt 0.215774 0.124115
vt 0.650051 0.141872
vt 0.203031 0.123833
vt 0.653489 0.141663
vt 0.666419 0.141429
s 0
f 15/25/1 14/24/1 17/29/1 16/27/1 4/8/1 6/11/1 2/4/1 1/1/1
f 21/34/2 20/33/2 23/36/2 22/35/2 18/30/2 17/29/2 14/24/2 13/23/2
s 1
f 73/87/3 72/86/4 25/39/5 29/43/6 80/96/7 79/95/8
s 0
f 22/35/9 24/37/9 10/19/9 12/21/9 5/10/9 4/7/9 16/28/9 18/30/9
f 3/5/10 2/3/10 6/12/10 5/9/10 12/22/10 11/20/10 8/15/10 7/13/10
f 9/16/11 8/15/11 11/20/11 10/18/11 24/38/11 23/36/11 20/33/11 19/31/11
s 1
f 82/99/12 81/97/12 128/160/12 127/159/12 30/44/12 34/48/12 91/111/12 90/109/12
s 0
f 163/203/13 162/202/13 26/40/13 25/39/13 72/86/13 71/85/13
f 68/82/14 67/81/14 27/41/14 26/40/14 162/202/14 161/201/14
s 1
f 69/83/15 73/87/3 79/95/8 78/93/16 120/151/17 122/154/18
f 160/200/19 159/199/20 167/209/21 166/207/22 154/193/23 158/198/24
f 36/50/25 35/49/26 94/115/27 93/113/25 133/167/25 132/165/25
s 0
f 143/179/28 142/178/28 31/45/28 30/44/28 127/159/28 126/158/28
f 62/76/29 61/75/29 32/46/29 31/45/29 142/178/29 141/177/29
s 1
f 45/59/30 44/58/31 48/62/32 47/61/33 96/117/34 95/116/35
s 0
f 54/68/36 53/67/36 40/54/36 39/53/36 60/74/36 59/73/36
s 1
f 46/60/37 49/63/38 51/65/39 50/64/40 102/126/41 101/125/42
s 0
f 110/137/43 109/136/43 83/100/43 82/98/43 90/110/43 89/108/43
f 165/206/44 164/204/44 121/153/44 120/150/44 78/94/44 77/92/44
f 155/194/45 154/192/45 166/208/45 165/206/45 77/92/45 76/91/45
f 115/144/46 114/142/46 156/196/46 155/194/46 76/91/46 75/90/46
f 105/130/47 104/129/47 88/107/47 87/105/47 131/164/47 130/162/47
f 147/184/46 146/182/46 117/147/46 116/145/46 85/102/46 84/101/46
f 109/136/48 108/134/48 148/186/48 147/184/48 84/101/48 83/100/48
f 137/172/49 136/171/49 129/161/49 133/166/49 93/114/49 98/120/49
f 104/129/50 103/127/50 111/139/50 110/137/50 89/108/50 88/107/50
s 1
f 108/135/51 113/141/51 140/176/51 144/180/51 150/188/51 149/187/51 145/181/51 148/185/51
s 0
f 138/174/46 137/172/46 98/120/46 97/118/46 100/124/46 99/121/46
f 136/171/47 135/169/47 106/132/47 105/130/47 130/162/47 129/161/47
f 61/75/52 60/74/52 39/53/52 38/52/52 33/47/52 32/46/52
s 1
f 35/49/26 41/55/53 42/56/54 45/59/30 95/116/35 94/115/27
s 0
f 53/67/55 52/66/55 43/57/55 42/56/55 41/55/55 40/54/55
f 52/66/52 51/65/52 49/63/52 48/62/52 44/58/52 43/57/52
s 1
f 50/64/40 55/69/56 139/175/57 138/173/58 99/122/59 102/126/41
f 47/61/33 46/60/37 101/125/42 100/123/60 97/119/61 96/117/34
f 56/70/62 62/76/63 141/177/63 140/176/63 113/141/63 112/140/64
f 63/77/65 68/82/66 161/201/67 160/200/19 158/198/24 157/197/68
f 58/72/69 57/71/70 107/133/70 106/131/70 135/170/71 134/168/72
f 57/71/73 56/70/62 112/140/64 111/138/73 103/128/73 107/133/73
s 0
f 144/180/1 143/179/1 126/158/1 125/157/1 151/189/1 150/188/1
s 1
f 153/191/74 152/190/75 65/79/76 64/78/77 119/149/78 118/148/79
f 64/78/77 63/77/65 157/197/68 156/195/80 114/143/81 119/149/78
s 0
f 116/145/82 115/144/82 75/90/82 74/88/82 86/104/82 85/102/82
s 1
f 159/199/20 163/203/83 71/85/84 70/84/85 168/210/86 167/209/21
f 55/69/56 54/68/87 59/73/88 58/72/69 134/168/72 139/175/57
s 0
f 67/81/1 66/80/1 124/156/1 123/155/1 28/42/1 27/41/1
s 1
f 81/97/89 86/103/89 74/89/90 80/96/7 29/43/6 28/42/91 123/155/89 128/160/89
f 34/48/92 33/47/92 38/52/92 37/51/93 92/112/94 91/111/92
f 149/187/95 153/191/74 118/148/79 117/146/96 146/183/95 145/181/95
f 37/51/93 36/50/97 132/165/97 131/163/97 87/106/97 92/112/94
s 0
f 152/190/52 151/189/52 125/157/52 124/156/52 66/80/52 65/79/52
s 1
f 70/84/85 69/83/15 122/154/18 121/152/98 164/205/99 168/210/86
s 0
f 1/2/100 2/4/100 3/5/100
f 4/8/101 5/10/101 6/12/101
f 7/14/102 8/15/102 9/16/102
f 10/19/103 11/20/103 12/22/103
f 13/23/104 14/24/104 15/25/104
f 16/28/105 17/29/105 18/30/105
f 19/32/106 20/33/106 21/34/106
f 22/35/107 23/36/107 24/38/107
s 1
f 25/39/5 26/40/108 27/41/108 28/42/91 29/43/6
f 30/44/109 31/45/109 32/46/109 33/47/109 34/48/109
f 35/49/110 36/50/110 37/51/110 38/52/110 39/53/110 40/54/110 41/55/110
f 42/56/54 43/57/111 44/58/31 45/59/30
f 46/60/37 47/61/33 48/62/32 49/63/38
f 50/64/40 51/65/39 52/66/112 53/67/112 54/68/87 55/69/56
f 56/70/113 57/71/113 58/72/113 59/73/113 60/74/113 61/75/113 62/76/113
f 63/77/65 64/78/77 65/79/76 66/80/114 67/81/114 68/82/66
f 69/83/15 70/84/85 71/85/84 72/86/4 73/87/3
f 74/89/90 75/90/115 76/91/115 77/92/115 78/94/16 79/95/8 80/96/7
f 81/97/116 82/99/116 83/100/116 84/101/116 85/102/116 86/104/116
f 87/106/117 88/107/117 89/108/117 90/110/117 91/111/117 92/112/117
s 0
f 93/114/118 94/115/118 95/116/118 96/117/118 97/119/118 98/120/118
s 1
f 99/122/59 100/124/60 101/125/42 102/126/41
f 103/128/119 104/129/119 105/130/119 106/132/119 107/133/119
f 108/135/120 109/136/120 110/137/120 111/139/120 112/140/120 113/141/120
f 114/143/81 115/144/121 116/145/121 117/147/96 118/148/79 119/149/78
f 120/151/17 121/153/98 122/154/18
f 123/155/122 124/156/122 125/157/122 126/158/122 127/159/122 128/160/122
s 0
f 129/161/123 130/162/123 131/164/123 132/165/123 133/167/123
s 1
f 134/168/72 135/170/71 136/171/124 137/172/124 138/174/58 139/175/57
f 140/176/125 141/177/125 142/178/125 143/179/125 144/180/125
f 145/181/126 146/183/126 147/184/126 148/186/126
f 149/187/127 150/188/127 151/189/127 152/190/127 153/191/127
f 154/193/23 155/194/128 156/196/80 157/197/68 158/198/24
f 159/199/20 160/200/19 161/201/67 162/202/129 163/203/83
f 164/205/99 165/206/130 166/208/22 167/209/21 168/210/86
s 0
f 7/14/131 9/17/131 19/32/131 21/34/131 13/23/131 15/26/131 1/2/131 3/6/131
